<svg width="74mm" height="34mm" version="1.1" viewBox="0 0 209.76 96.377" xmlns="http://www.w3.org/2000/svg"><path d="m204.09 85.831-4.74-2.0642c-.093-.04091-.167-.09777-.227-.16362l-25.342-31.454c-.411-.51561-1.244-.0416-.992.5639l2.502 5.8266c.059.1312.059.27826.009.41734l-1.161 2.9367c-.076.19645-.034.42572.117.58086l10.442 10.936c.269.27836.176.7364-.194.89982l-4.06 1.7571c-.395.1717-.471.68712-.126.94901l13.316 10.422c.478.36815.108 1.1124-.48.98972l-13.555-2.8375c-.151-.03292-.311 0-.445.08181l-7.566 4.9386c-.286.18757-.673.09777-.832-.19655l-6.501-11.687c-.017-.03263-.034-.05737-.05-.08181l-54.473-67.173c-.344-.41744-1.034-.18876-1.034.34301l-.002 4.3121c0 .08989.025.17988.067.2618l7.885 14.313c.135.23725.076.52379-.126.6952l-3.75 3.1566c-.269.22089-.269.63823.007.85922l14.795 11.821c.395.31926.201.94113-.303.9979l-5.034.54594c-.48.04909-.69.61338-.354.94891l14.651 14.824c.345.35209.101.94113-.404.94891l-7.556.14407c-.563.0078-.773.71954-.303 1.0307l13.124 8.5232c.421.27836.302.90032-.185 1.0146l-32.496 7.7989c-.168.04091-.352.008-.487-.09877l-22.138-16.373c-.193-.14756-.462-.15574-.672-.02504l-3.943 2.5427c-.261.1717-.606.10626-.79-.13948l-25.341-34.653c-.361-.50743-1.176-.14786-1.034.45774l4.354 17.839c0 .008 0 .02444.008.03242l6.596 21.268c.118.38461-.21.76094-.622.71964l-12.001-1.2489c-.185-.01626-.37.04899-.496.18797l-4.179 4.5798c-.067.07393-.152.12262-.252.15554l-23.612 7.6801c-.4118.1307-.8237-.20453-.7561-.62157l1.6354-10.759c.0758-.48279-.4785-.81821-.899-.54045l-18.319 12.108c-.0338.02494-.0676.04091-.1012.05787l48.093-59.648 17.186 21.346 20.275-25.15 1.461 1.817 16.02-19.874 46.998 58.398 15.456-19.171z" fill="#00464c"/></svg>
