<svg width="230mm" height="205mm" data-name="Layer 1" version="1.1" viewBox="0 0 869.29 774.8" xmlns="http://www.w3.org/2000/svg" xmlns:xlink="http://www.w3.org/1999/xlink"><defs><linearGradient id="fe70a47d-0b65-4156-9878-337bc12fa6de" x1="646.9" x2="646.9" y1="676.21" y2="530.17" gradientTransform="matrix(-1,0,0,1,828.87,0)" gradientUnits="userSpaceOnUse"><stop stop-color="gray" stop-opacity=".25" offset="0"/><stop stop-color="gray" stop-opacity=".12" offset=".54"/><stop stop-color="gray" stop-opacity=".1" offset="1"/></linearGradient></defs><title>super woman</title><ellipse cx="578.5" cy="676.7" rx="24.309" ry="4.7763" style="fill:#dddfeb;stroke-width:.65164"/><circle transform="scale(-1,1)" cx="-579.91" cy="641.53" r="25.679" style="fill:#2f2e41;stroke-width:.59624"/><rect transform="scale(-1,1)" x="-591.61" y="661.68" width="7.8011" height="13.977" style="fill:#2f2e41;stroke-width:.59624"/><rect transform="scale(-1,1)" x="-576" y="661.68" width="7.8011" height="13.977" style="fill:#2f2e41;stroke-width:.59624"/><ellipse transform="scale(-1,1)" cx="-585.11" cy="675.82" rx="6.5009" ry="2.4378" style="fill:#2f2e41;stroke-width:.59624"/><ellipse transform="scale(-1,1)" cx="-569.5" cy="675.5" rx="6.5009" ry="2.4378" style="fill:#2f2e41;stroke-width:.59624"/><circle transform="scale(-1,1)" cx="-579.26" cy="635.03" r="8.7762" style="fill:#fff;stroke-width:.59624"/><circle transform="scale(-1,1)" cx="-577.42" cy="635.64" r="2.9254" style="fill:#3f3d56;stroke-width:.59624"/><path d="m604.81 617.65c2.0734-9.2858-4.5545-18.669-14.804-20.957s-20.239 3.3837-22.312 12.67c-2.0734 9.2858 4.7192 12.711 14.969 14.999 10.249 2.2886 20.074 2.5744 22.148-6.7114z" style="fill:#cfcce0;stroke-width:.59624"/><ellipse transform="scale(-1,1)" cx="-757.22" cy="680.64" rx="15.823" ry="4.5778" style="fill:#dddfeb;stroke-width:.088852"/><circle transform="matrix(-.95372 -.30069 -.30069 .95372 0 0)" cx="-920.59" cy="403.12" r="19.863" style="fill:#4e73df;stroke-width:.27588"/><g transform="rotate(26.226 761.57 650.05)"><path d="m773.72 636.39c-3.5357 5.5208-10.307 7.4956-10.307 7.4956s-1.0386-6.9763 2.497-12.497c3.5357-5.5208 10.307-7.4956 10.307-7.4956s1.0386 6.9763-2.497 12.497z" style="fill:#3f3d56;stroke-width:.27588"/><path d="m771.73 634.34c-5.8553 2.9488-8.5164 9.4808-8.5164 9.4808s6.8324 1.7509 12.688-1.1979c5.8553-2.9488 8.5164-9.4808 8.5164-9.4808s-6.8324-1.7509-12.688 1.1979z" style="fill:#4e73df;stroke-width:.27588"/><path d="m764.74 631.21c1.2811 6.4296-2.2279 12.548-2.2279 12.548s-5.5861-4.3061-6.8673-10.736c-1.2811-6.4296 2.2279-12.548 2.2279-12.548s5.5861 4.3061 6.8673 10.736z" style="fill:#3f3d56;stroke-width:.27588"/><path d="m761.88 631.11c-2.1738 6.1851 0.43867 12.737 0.43867 12.737s6.1368-3.4765 8.3106-9.6616c2.1738-6.1851-0.43868-12.737-0.43868-12.737s-6.1368 3.4765-8.3106 9.6616z" style="fill:#4e73df;stroke-width:.27588"/></g><circle transform="matrix(-.95372 -.30069 -.30069 .95372 0 0)" cx="-921.42" cy="400.91" r="10.207" style="fill:#f2f2f2;stroke-width:.27588"/><circle transform="matrix(-.95372 -.30069 -.30069 .95372 0 0)" cx="-917.91" cy="396.92" r="3.3105" style="fill:#3f3d56;stroke-width:.27588"/><ellipse cx="132.26" cy="718.45" rx="40.21" ry="6.8" style="fill:#dddfeb"/><ellipse cx="786.87" cy="716.91" rx="40.21" ry="6.8" style="fill:#dddfeb"/><path d="m471.52 710.52s20-31.35 22.36-44.74a172.59 172.59 0 0 1 6.97-25.71" stroke-miterlimit="10" style="fill:none;stroke-miterlimit:10;stroke-width:2;stroke:#535461"/><g transform="matrix(.68797 0 0 .68797 273.72 174.75)"><ellipse cx="104.35" cy="737.53" rx="44.379" ry="12.84" style="fill:#dddfeb;stroke-width:.24921"/><circle transform="rotate(-17.499)" cx="-104.74" cy="683.35" r="55.712" style="fill:#4e73df;stroke-width:.77378"/><path d="m58.076 613.42c9.9169 15.485 28.908 21.024 28.908 21.024s2.9131-19.567-7.0037-35.052-28.908-21.024-28.908-21.024-2.9131 19.567 7.0037 35.052z" style="fill:#3f3d56;stroke-width:.77378"/><path d="m63.658 607.66c16.423 8.2709 23.887 26.592 23.887 26.592s-19.164 4.911-35.587-3.3599c-16.423-8.2709-23.887-26.592-23.887-26.592s19.164-4.911 35.587 3.3599z" style="fill:#4e73df;stroke-width:.77378"/><path d="m83.26 598.88c-3.5934 18.034 6.2487 35.194 6.2487 35.194s15.668-12.078 19.261-30.111c3.5933-18.034-6.2487-35.194-6.2487-35.194s-15.668 12.078-19.261 30.111z" style="fill:#3f3d56;stroke-width:.77378"/><path d="m91.276 598.6c6.097 17.348-1.2304 35.724-1.2304 35.724s-17.213-9.751-23.31-27.099c-6.097-17.348 1.2304-35.724 1.2304-35.724s17.213 9.751 23.31 27.099z" style="fill:#4e73df;stroke-width:.77378"/><circle transform="rotate(-17.499)" cx="-107.06" cy="677.16" r="28.63" style="fill:#f2f2f2;stroke-width:.77378"/><circle transform="rotate(-17.499)" cx="-97.22" cy="665.97" r="9.2853" style="fill:#3f3d56;stroke-width:.77378"/></g><ellipse cx="449.78" cy="731.8" rx="283" ry="43" style="fill:#dddfeb"/><g transform="matrix(-1 0 0 1 868.46 102.88)"><path transform="translate(-55.48,-53.98)" d="m705.2 609.9s-2-8-3.77-15.89c-0.37-4.94-1.24-11.35-1.61-14v-0.32a4.25 4.25 0 0 0-1.13-2.9c1-2.88 4.63-13.84 3.95-17-0.78-3.64-3.58-12.52-6.9-15.45a8.89 8.89 0 0 0-4.37-3.45 11.52 11.52 0 0 0-9.72 0.78l-16.88 9.47c-6.77-1-12.26-1.77-12.26-1.77s-4.19-0.5-9.43-1c-1.63-3.88-7-15.61-12.57-17.47-6-2-13 0.71-14.53 1.34h-0.08l-0.2 0.08c-11 5.09-9.72 26.64-9.3 31.35a78.17 78.17 0 0 1-6.62 7.37c-3.77 3.32-4.94 12-1.43 13.79 1.66 0.85 4 1.86 6.08 2.69-9.52 20.25-25.63 60.06-11.2 71.37 19.62 15.37 56.38 20.48 69 15.37a2 2 0 0 0 1-0.07s20.45-4.87 25.23-10.32a35.37 35.37 0 0 0 7.15-15.4 29.92 29.92 0 0 0 9.6-16.79c2.51-12.58-0.01-21.78-0.01-21.78zm-12.79-43.66 0.49-2.42 0.81 0.45c-0.13 0.67-0.27 1.36-0.45 2.07l-0.76 4.66zm-3.85-20.14c0.87 0.58 6.64 4.87 5.49 15.82a5.28 5.28 0 0 0-0.32-1.24c-0.25-1.57-1.38-3.7-5.28-5a85.26 85.26 0 0 0-10.2-2.27 33.79 33.79 0 0 1 10.31-7.31zm-57.35 1.14c-4.42-0.34-7.9-0.48-8.38-0.14h-0.07a4 4 0 0 0-1.68 0.21 12.84 12.84 0 0 0-4.75 2.22c2-11.19 7.84-12.13 9.11-12.2a31 31 0 0 1 5.77 9.91zm63.54 88.76c-0.61-9.14-1.17-23.42-1.47-31.74l0.51-0.08a13.28 13.28 0 0 0 1.7-0.34c0.56 5.38 1.56 11.77 3.29 15.92 2.22 5.36-1.25 12.1-4.03 16.24z" style="fill:url(#fe70a47d-0b65-4156-9878-337bc12fa6de)"/><polygon points="610.95 515.89 617.02 519.82 626.65 519.5 635.14 515.51 636.59 508.17 635.52 507.28 624.12 503.74 611.83 508.17" style="fill:#cd939c"/><polygon points="610.95 515.89 617.02 519.82 626.65 519.5 635.14 515.51 636.59 508.17 635.52 507.28 624.12 503.74 611.83 508.17" style="opacity:.2"/><path transform="translate(-55.48,-53.98)" d="m607.59 565.06s-3.11-26.7 9.22-32.1c0 0 6.59 0.33 9.46 5.06 0 0-9-0.5-9.73 18.24z" style="fill:#f6c6cd"/><path transform="translate(-55.48,-53.98)" d="m607.59 565.06s-3.11-26.7 9.22-32.1c0 0 6.59 0.33 9.46 5.06 0 0-9-0.5-9.73 18.24z" style="opacity:.1"/><path transform="translate(-55.48,-53.98)" d="m614.24 555.5s-9.5 12.67-13.18 16-4.81 11.91-1.39 13.68 10 4.31 10 4.31z" style="fill:#cd939c"/><path transform="translate(-55.48,-53.98)" d="m614.24 555.5s-9.5 12.67-13.18 16-4.81 11.91-1.39 13.68 10 4.31 10 4.31z" style="opacity:.05"/><path transform="translate(-55.48,-53.98)" d="m643.68 550.18s-6.2-16.34-12.72-18.55-14.42 1.45-14.42 1.45 9.6-1 15.49 15.83z" style="fill:#f6c6cd"/><path transform="translate(-55.48,-53.98)" d="m697.05 577.86s4.83-13.94 4.07-17.55-3.48-12.41-6.71-15.32-7.09 1.64-7.09 1.64 8.3 5 4.69 20.14l-1.08 6.72z" style="fill:#f6c6cd"/><path transform="translate(-55.48,-53.98)" d="m697.05 577.86s4.83-13.94 4.07-17.55-3.48-12.41-6.71-15.32-7.09 1.64-7.09 1.64 8.3 5 4.69 20.14l-1.08 6.72z" style="opacity:.1"/><path transform="translate(-55.48,-53.98)" d="m661.8 553.16 18.9-10.81a11 11 0 0 1 9.46-0.77 8.63 8.63 0 0 1 4.25 3.41s-9.12-0.51-19.25 11.4z" style="fill:#f6c6cd"/><path transform="translate(-55.48,-53.98)" d="m693.48 594.26s0.51 17.22 3.89 25.5-6.76 19.93-6.76 19.93l1.86 10s8.7-5.57 11.15-18.07 0-21.61 0-21.61-7-28.08-6-31.08-4.14 15.33-4.14 15.33z" style="fill:#f6c6cd"/><path transform="translate(-55.48,-53.98)" d="m693.48 594.26s0.51 17.22 3.89 25.5-6.76 19.93-6.76 19.93l1.86 10s8.7-5.57 11.15-18.07 0-21.61 0-21.61-7-28.08-6-31.08-4.14 15.33-4.14 15.33z" style="opacity:.1"/><path transform="translate(-55.48,-53.98)" d="m691.12 564s1.52 8.78-16.38 4.9l-12 104.8s19.89-4.83 24.54-10.23 8.1-15.71 7-19.42-2.49-46.27-2.49-46.27z" style="fill:#cd939c"/><path transform="translate(-55.48,-53.98)" d="m611.41 575.89s-35.81 67.43-16.72 82.67 54.84 20.31 67.11 15.24c0 0 5.68 1.52 4.83-16.21s6.59-67.22 6.59-67.22z" style="fill:#cd939c"/><path transform="translate(-55.48,-53.98)" d="m612.6 578.9s-33.6 63.37-15.72 77.69 51.55 19.08 63.07 14.32c0 0 5.34 1.43 4.54-15.24s6.19-63.16 6.19-63.16z" style="fill:#f6c6cd"/><path transform="translate(-55.48,-53.98)" d="m690.36 605c-1.38 1-9.25-1.4-9.25-1.4-8.51-0.59-5.48-15.25-3.94-21.08 0.39-1.45 0.68-2.35 0.68-2.35 4 5.07 11.12 2.91 11.12 2.91s0.21 1.63 0.49 4c0.73 6.16 1.89 17.23 0.9 17.92z" style="opacity:.1"/><path transform="translate(-55.48,-53.98)" d="m690.61 604.52c-1.37 1-9.24-1.39-9.24-1.39-8.52-0.6-5.49-15.26-3.94-21.08 0.38-1.45 0.67-2.36 0.67-2.36 4 5.08 11.12 2.92 11.12 2.92s0.21 1.63 0.5 4c0.72 6.12 1.88 17.19 0.89 17.91z" style="fill:#f6c6cd"/><path transform="translate(-55.48,-53.98)" d="m690.61 604.88c-1.37 1-9.24-1.39-9.24-1.39-8.52-0.6-5.49-15.25-3.94-21.08 0.38-1.45 0.67-2.35 0.67-2.35 4 5.07 11.12 2.91 11.12 2.91s0.21 1.63 0.5 4c0.72 6.13 1.88 17.19 0.89 17.91z" style="opacity:.05"/><path transform="translate(-55.48,-53.98)" d="m689.72 586.61c-3.88-0.49-9.83-3.32-12.29-4.56 0.38-1.45 0.67-2.36 0.67-2.36 4 5.08 11.12 2.92 11.12 2.92s0.21 1.63 0.5 4z" style="opacity:.1"/><path transform="translate(-55.48,-53.98)" d="m685.93 582s-9.67 25.2 6.58 22.29c0 0 7.64-0.8 7.6-6.59s-1.9-18.53-1.9-18.53z" style="fill:#f6c6cd"/><path transform="translate(-55.48,-53.98)" d="m678.71 575.71s-4.92 20.41 10.83 12.84 5.67-12.84 5.67-12.84l-7.52-4.91z" style="opacity:.1"/><path transform="translate(-55.48,-53.98)" d="m678.71 575.46s-4.92 20.4 10.83 12.83 5.67-12.83 5.67-12.83l-7.52-4.91z" style="fill:#cd939c"/><path transform="translate(-55.48,-53.98)" d="m681.72 572.61s-4.51 1.2-2.2 5.66a12.85 12.85 0 0 1 1.45 6.55 3 3 0 0 0 2.47 3.18c1.62 0.29 3.93-0.11 6.85-2.66 0 0 5.82-2.17 5.37-5s-10-9.19-10-9.19z" style="opacity:.1"/><path transform="translate(-55.48,-53.98)" d="m681.72 572.35s-4.51 1.21-2.2 5.67a12.85 12.85 0 0 1 1.45 6.55 3 3 0 0 0 2.47 3.18c1.62 0.28 3.93-0.12 6.85-2.66 0 0 5.82-2.18 5.37-5s-10-9.19-10-9.19z" style="fill:#f6c6cd"/><circle cx="632.31" cy="525.63" r="2.97" style="opacity:.1"/><circle cx="632.31" cy="525.38" r="2.97" style="fill:#cd939c"/><path transform="translate(-55.48,-53.98)" d="m651.49 550.84s-28.27-3.5-29.71-2.42c0 0-15 2.56-15 30.55 0 0-0.31 16.08 30.62 23.82 0 0 24.82 2.18 32.92-7.66s4.08-26.39 4.08-26.39 3.23-12.65 18.23-3.9c0 0 1.57-5-5.2-7.4s-35.94-6.6-35.94-6.6z" style="opacity:.1"/><path transform="translate(-55.48,-53.98)" d="m651.49 550.34s-28.27-3.5-29.71-2.43c0 0-15 2.56-15 30.55 0 0-0.31 16.09 30.62 23.83 0 0 24.82 2.18 32.92-7.66s4.08-26.39 4.08-26.39 3.23-12.65 18.23-3.91c0 0 1.57-5-5.2-7.4s-35.94-6.59-35.94-6.59z" style="fill:#cd939c"/><path transform="translate(-55.48,-53.98)" d="m652.36 550.43s-27.48-3.29-28.88-2.28c0 0-14.56 2.41-14.56 28.76 0 0-0.3 15.13 29.76 22.42 0 0 24.13 2 32-7.21s4-24.84 4-24.84 3.14-11.91 17.72-3.67c0 0 1.54-4.69-5-7s-35.04-6.18-35.04-6.18z" style="opacity:.1"/><path transform="translate(-55.48,-53.98)" d="m652.36 550.18s-27.48-3.29-28.88-2.28c0 0-14.56 2.41-14.56 28.75 0 0-0.3 15.14 29.76 22.42 0 0 24.13 2 32-7.21s4-24.83 4-24.83 3.14-11.91 17.72-3.68c0 0 1.54-4.68-5-7s-35.04-6.17-35.04-6.17z" style="fill:#f6c6cd"/><path transform="translate(-55.48,-53.98)" d="m638.55 593.49s-7.47-3.41-7.85 3c0 0-2.53 6.46-2.66 7.22s0.38 7.34 6.21 7.09a9 9 0 0 0 7.85-4.8s1.27-7.08 3-8.6-1.27-3-2.41-3a24.47 24.47 0 0 1-4.14-0.91z" style="fill:#cd939c"/><path transform="translate(-55.48,-53.98)" d="m637.54 592.48s-7.47-3.41-7.85 3c0 0-2.53 6.46-2.66 7.22s0.38 7.34 6.21 7.09a9 9 0 0 0 7.85-4.82s1.26-7.09 3-8.61-1.27-3-2.41-3a24.71 24.71 0 0 1-4.14-0.88z" style="opacity:.1"/><path transform="translate(-55.48,-53.98)" d="m637.79 592.23s-7.47-3.42-7.85 3c0 0-2.53 6.46-2.66 7.22s0.38 7.35 6.21 7.1a9 9 0 0 0 7.85-4.83s1.27-7.08 3-8.6-1.27-3-2.41-3a24.71 24.71 0 0 1-4.14-0.89z" style="fill:#f6c6cd"/><circle cx="578.58" cy="550.81" r="2.71" style="opacity:.1"/><circle cx="578.58" cy="550.56" r="2.71" style="fill:#cd939c"/><path transform="translate(-55.48,-53.98)" d="m659.39 619.34s-29.45-3.43-50-14c0 0-16.21 40.86-3.29 46.58s39.77 14.87 47.3 11.71c0 0 4.5 0.74 3-14.13s2.99-30.16 2.99-30.16z" style="fill:#cd939c"/><path transform="translate(-55.48,-53.98)" d="m657.62 622.25s-29.45-3.23-50-13.17c0 0-16.22 38.44-3.3 43.82s39.77 14 47.31 11c0 0 4.5 0.7 3-13.3s2.99-28.35 2.99-28.35z" style="opacity:.1"/><path transform="translate(-55.48,-53.98)" d="m658.12 622s-29.44-3.23-50-13.17c0 0-16.21 38.44-3.29 43.82s39.77 14 47.31 11c0 0 4.49 0.7 3-13.3s2.98-28.35 2.98-28.35z" style="fill:#f6c6cd"/><g style="opacity:.1"><path transform="translate(-55.48,-53.98)" d="m687.32 556.18c-6.59-2.28-35-6.2-35-6.2s-27.48-3.3-28.88-2.28c0 0-7.1 1.17-11.38 10.85 4.31-8.69 10.88-9.78 10.88-9.78 1.39-1 28.88 2.28 28.88 2.28s28.37 3.93 35 6.21c4.42 1.53 5.18 4.14 5.2 5.7l0.35 0.19s1.54-4.69-5.05-6.97z"/><path transform="translate(-55.48,-53.98)" d="m674.9 566.11a8.67 8.67 0 0 0-0.75 1.79s2.79 11.1-1.15 20.18c4.63-9.2 1.61-21.26 1.61-21.26s0.12-0.27 0.29-0.71z"/></g></g><g transform="translate(-43.366 -4.6257)"><path d="m627.59 579.59a20.813 20.813 0 1 0 2.7716-39.915l0.52093 10.712-5.0681-9.1805a20.734 20.734 0 0 0-10.684 11.723 20.409 20.409 0 0 0-1.1971 5.6299 20.809 20.809 0 0 0 13.656 21.031z" style="fill:#1cc88a"/><path d="m652.67 703.83c-1.789-9.1103 5.9633-17.187 13.621-22.437s16.605-10.408 19.218-19.317c3.755-12.804-7.43-24.53-16.136-34.642a125.3 125.3 0 0 1-16.524-24.557c-1.8111-3.5325-3.4756-7.2253-3.9522-11.166-0.6864-5.6755 1.1369-11.323 2.9739-16.737q9.1792-27.052 19.628-53.65" stroke-miterlimit="10" style="fill:none;stroke-miterlimit:10;stroke:#3f3d56"/><path d="m628.45 576.83a20.813 20.813 0 1 0 2.7716-39.915l0.52093 10.712-5.0682-9.1804a20.734 20.734 0 0 0-10.684 11.723 20.409 20.409 0 0 0-1.1971 5.6299 20.809 20.809 0 0 0 13.656 21.031z" stroke-miterlimit="10" style="fill:none;stroke-miterlimit:10;stroke:#3f3d56"/><path d="m650.12 517.63a20.788 20.788 0 0 1 14.98-13.198l1.7136 10.184 3.177-10.696a20.81 20.81 0 1 1-19.871 13.71z" style="fill:#1cc88a"/><path d="m651.27 513.95a20.788 20.788 0 0 1 14.98-13.198l1.7136 10.184 3.177-10.696a20.81 20.81 0 1 1-19.871 13.71z" stroke-miterlimit="10" style="fill:none;stroke-miterlimit:10;stroke:#3f3d56"/><path d="m665.72 627.64a20.81 20.81 0 0 0 18.419-37.023l-2.4412 8.2193-1.7311-10.304a0.36335 0.36335 0 0 0-0.053-0.0201 20.811 20.811 0 1 0-14.194 39.127z" style="fill:#1cc88a"/><path d="m666.71 623.92a20.81 20.81 0 0 0 18.419-37.023l-2.4412 8.2193-1.731-10.304a0.36307 0.36307 0 0 0-0.053-0.0201 20.811 20.811 0 1 0-14.194 39.127z" stroke-miterlimit="10" style="fill:none;stroke-miterlimit:10;stroke:#3f3d56"/><path d="m644.05 662.21a20.801 20.801 0 1 0 4.0106-16.297l9.2727 13.957-12.67-7.4077a20.616 20.616 0 0 0-0.61331 9.7485z" style="fill:#1cc88a"/><path d="m644.91 659.45a20.801 20.801 0 1 0 4.0106-16.297l9.2727 13.957-12.67-7.4077a20.616 20.616 0 0 0-0.6133 9.7485z" stroke-miterlimit="10" style="fill:none;stroke-miterlimit:10;stroke:#3f3d56"/></g><path d="m586.76 116.72a58.487 58.487 0 0 1 58.406-55.43c1.7775 0 3.5328 0.0927 5.27 0.248a77.707 77.707 0 0 1 134.33-0.0635c1.4655-0.11007 2.9409-0.18445 4.4346-0.18445a58.487 58.487 0 0 1 58.406 55.43" style="fill:#dddfeb"/><path d="m598.94 112.22a58.487 58.487 0 0 1 58.406-55.43c1.7775 0 3.5328 0.0927 5.27 0.248a77.707 77.707 0 0 1 134.33-0.0635c1.4655-0.11007 2.9409-0.18445 4.4346-0.18445a58.487 58.487 0 0 1 58.406 55.43" stroke-miterlimit="10" style="fill:none;stroke-miterlimit:10;stroke:#3f3d56"/><path d="m161.76 394.72a58.487 58.487 0 0 1 58.406-55.43c1.7775 0 3.5328 0.0927 5.27 0.248a77.707 77.707 0 0 1 134.33-0.0635c1.4655-0.11007 2.9409-0.18445 4.4346-0.18445a58.487 58.487 0 0 1 58.406 55.43" style="fill:#dddfeb"/><path d="m173.94 390.22a58.487 58.487 0 0 1 58.406-55.43c1.7775 0 3.5328 0.0927 5.27 0.248a77.707 77.707 0 0 1 134.33-0.0635c1.4655-0.11007 2.9409-0.18445 4.4346-0.18445a58.487 58.487 0 0 1 58.406 55.43" stroke-miterlimit="10" style="fill:none;stroke-miterlimit:10;stroke:#3f3d56"/><path d="m37.758 101.72a58.487 58.487 0 0 1 58.406-55.43c1.7775 0 3.5328 0.0927 5.27 0.248a77.707 77.707 0 0 1 134.33-0.0635c1.4655-0.11007 2.9409-0.18445 4.4346-0.18445a58.487 58.487 0 0 1 58.406 55.43" style="fill:#dddfeb"/><path d="m49.94 97.217a58.487 58.487 0 0 1 58.406-55.43c1.7775 0 3.5328 0.0927 5.27 0.248a77.707 77.707 0 0 1 134.33-0.0635c1.4655-0.11007 2.9409-0.18445 4.4346-0.18445a58.487 58.487 0 0 1 58.406 55.43" stroke-miterlimit="10" style="fill:none;stroke-miterlimit:10;stroke:#3f3d56"/><path d="m295.05 220.35s105.12 52.198 123.97 44.948 25.374-71.772 25.374-71.772l-77.571-14.499z" style="fill:#4e73df"/><g transform="translate(-899.49 -73.594)" style="opacity:.5"><path d="m1140.4 372.5c3.9266-5.2116 12.038 0.42512 8.3703 5.8099-0.9534 1.4013-2.0037 2.7711-3.0056 4.0622-12.071 15.887-18.324 35.174-23.705 54.226-1.325 4.7235-2.6016 9.6831-1.0988 14.312-2.1653-12.391-0.7595-25.192 2.5047-37.331 3.2641-12.139 8.3218-23.775 13.557-35.253a32.205 31.38 0 0 1 3.3773-5.8256z" style="fill:#e74a3b;opacity:.4;stroke-width:1.5951"/><path d="m1218.7 405.9c8.0794-0.25192 9.1783 11.793 1.0664 12.423-2.1329 0.15745-4.2659 0.20468-6.3181 0.26766-24.933 0.66129-48.477 9.447-71.18 18.894-5.5587 2.3145-11.311 4.9282-14.656 9.9036 10.212-11.541 23.673-19.996 37.974-26.215 14.301-6.2192 29.555-10.281 44.793-14.092a38.054 37.079 0 0 1 8.3219-1.1809z" style="fill:#e74a3b;stroke-width:1.5951"/><path d="m1216.5 435.48c5.1385 0.18894 3.9751 7.3056-1.1958 7.3529-1.3574 0-2.7147 0-4.0074-0.11021-15.723-0.61406-31.833 3.6056-47.459 8.2661-3.8459 1.1336-7.8856 2.4405-10.681 5.2273a85.497 83.306 0 0 1 27.745-13.871 212.98 207.52 0 0 1 30.185-6.4712 27.583 26.877 0 0 1 5.4133-0.39362z" style="fill:#e74a3b;opacity:.16;stroke-width:1.5951"/><path d="m1111.2 567.88c-1.4543 4.8022-8.2411 1.9524-6.9968-2.96 0.3232-1.2753 0.711-2.5349 1.0826-3.7473 4.5245-14.69 4.3145-30.939 3.5712-46.857-0.1939-3.889-0.4687-8.0457-2.5532-11.368a85.546 83.354 0 0 1 6.8999 29.632 211.68 206.26 0 0 1-1.0503 30.104 27.357 26.656 0 0 1-0.9534 5.1958z" style="fill:#e74a3b;opacity:.4;stroke-width:1.5951"/><path d="m1207.1 365.81c3.0863-0.51959 3.3287 3.8732 0.2423 4.5345-0.8079 0.18894-1.6159 0.3149-2.4076 0.44086-9.4692 1.5745-18.534 6.0933-27.26 10.817a14.802 14.422 0 0 0-5.7042 4.4401 52.048 50.714 0 0 1 14.769-11.714 128.01 124.73 0 0 1 17.177-7.6048 16.741 16.312 0 0 1 3.1834-0.9132z" style="fill:#e74a3b;opacity:.16;stroke-width:1.5951"/><path d="m1254.9 482.27c7.8533 3.9362 1.2119 14.753-6.8514 11.163-2.1168-0.94469-4.169-1.9996-6.1404-2.9915-24.012-12.124-51.886-16.595-79.324-20.028-6.7221-0.85023-13.897-1.5745-20.134 1.0077 16.983-4.7235 35.049-5.0541 52.517-3.0703 17.468 1.9839 34.451 6.298 51.272 10.738a45.601 44.432 0 0 1 8.6612 3.1805z" style="fill:#e74a3b;stroke-width:1.5951"/><path d="m1232.4 524.36c5.6556 5.1328-3.2318 11.195-9.0814 6.298-1.6159-1.2911-3.0217-2.6451-4.4437-3.9362-17.193-15.745-39.929-26.94-62.568-37.252-5.5587-2.5349-28.424-5.1328-34.532-4.9911 15.949 1.4013 48.477 6.298 63.02 12.596a349.53 340.58 0 0 1 41.076 22.468 43.532 42.417 0 0 1 6.5282 4.818z" style="fill:#e74a3b;opacity:.4;stroke-width:1.5951"/><path d="m1192.2 591.56c1.6159 7.3371-9.1298 7.4474-11.134 0.11021-0.5171-1.9209-0.9372-3.8575-1.3412-5.6997-4.977-22.468-17.145-44.275-29.749-65.31-3.1025-5.1643-20.409-19.949-25.515-23.224 12.313 9.9823 36.277 32.025 44.453 45.314a349.41 340.45 0 0 1 20.7 41.236 43.435 42.322 0 0 1 2.5854 7.5733z" style="fill:#e74a3b;stroke-width:1.5951"/><path d="m1111.1 333.61c3.8458-7.652 14.834-1.3698 11.311 6.4712-0.9211 2.0468-1.9391 4.0622-2.9248 5.9673-11.828 23.334-15.9 50.384-18.954 76.867-0.7433 6.5026-1.3735 13.446 1.3412 19.429-4.9608-16.343-5.6233-33.789-3.9104-50.683 1.7128-16.894 5.7687-33.348 10.035-49.66a44.857 43.708 0 0 1 3.1025-8.392z" style="fill:#e74a3b;stroke-width:1.5951"/><path d="m1172.4 346.6a1.2604 1.2281 0 0 1-0.6625 0.18894c-0.4201 0-0.7271-0.40936-0.9049-0.78724-0.9534-2.0311-0.404-4.7235-1.8906-6.3924a22.623 22.043 0 0 0-3.5873 5.8728l-5.6395-1.7162a8.4511 8.2346 0 0 0 1.0665 6.298 8.5319 8.3133 0 0 0-2.6501 1.7477 2.9248 2.8498 0 0 0-0.6948 2.9128 14.333 13.966 0 0 0 3.9751 0.39362 25.854 25.192 0 0 0 0.4363 7.2112 1.3735 1.3383 0 0 0 0.4848 0.92895c0.404 0.25192 0.9534 0 1.3735-0.22043a13.186 12.848 0 0 0 4.6376-4.8022l2.1007 4.8809a2.2138 2.1571 0 0 0 0.9372 1.2281 1.6159 1.5745 0 0 0 1.7613-0.59831 4.5084 4.3928 0 0 0 0.6141-1.8422l0.7918-4.7235a1.0503 1.0234 0 0 1 0.2585-0.64555 1.1311 1.1021 0 0 1 0.8241-0.23617c2.0037 0 3.9913-0.0787 5.9788 0 0.3394-1.0234-0.711-1.9839-1.729-2.4247s-2.2299-0.75576-2.747-1.7162c-1.0342-1.9681 1.6159-4.7235 0.5171-6.3924-1.3412-1.8894-3.5065 0-5.2517 0.83448z" style="fill:#e74a3b;stroke-width:1.5951"/><path d="m1063.5 372.5c-3.9266-5.2116-12.022 0.42512-8.3703 5.8099 0.9695 1.4013 2.0037 2.7711 3.0055 4.0622 12.071 15.887 18.324 35.174 23.721 54.226 1.325 4.7235 2.6016 9.6831 1.0826 14.312 2.1653-12.391 0.7595-25.192-2.5046-37.331a236.71 230.65 0 0 0-13.541-35.253 33.239 32.387 0 0 0-3.3934-5.8256z" style="fill:#e74a3b;opacity:.4;stroke-width:1.5951"/><path d="m985.15 405.9c-8.0795-0.25192-9.1783 11.793-1.0665 12.423 2.1168 0.15745 4.266 0.20468 6.302 0.26766 24.949 0.66129 48.477 9.447 71.18 18.894 5.5587 2.3145 11.408 4.9282 14.656 9.9036-10.212-11.541-23.657-19.996-37.974-26.215-14.317-6.2192-29.539-10.281-44.793-14.092a38.054 37.079 0 0 0-8.3057-1.1809z" style="fill:#e74a3b;stroke-width:1.5951"/><path d="m987.39 435.48c-5.1547 0.18894-3.9913 7.3056 1.1796 7.3529 1.3574 0 2.7147 0 4.0074-0.11021 15.739-0.61406 31.833 3.6056 47.459 8.2661 3.8458 1.1336 7.9017 2.4405 10.681 5.2273a85.497 83.306 0 0 0-27.745-13.871 212.98 207.52 0 0 0-30.266-6.4712 27.47 26.766 0 0 0-5.3163-0.39362z" style="fill:#e74a3b;opacity:.4;stroke-width:1.5951"/><path d="m996.75 365.81c-3.0864-0.51959-3.3288 3.8732-0.24238 4.5345 0.80795 0.18894 1.6159 0.3149 2.4077 0.44086 9.4692 1.5745 18.55 6.0933 27.276 10.817a14.753 14.375 0 0 1 5.6879 4.4401 51.983 50.651 0 0 0-14.753-11.714 129.14 125.83 0 0 0-17.193-7.6048 16.741 16.312 0 0 0-3.1833-0.9132z" style="fill:#e74a3b;opacity:.16;stroke-width:1.5951"/><path d="m1077.4 577c0.6949 2.9758 4.9447 1.4958 4.3791-1.5745-0.1454-0.80299-0.3393-1.5745-0.5171-2.3302-2.1491-9.1321-1.3735-19.02-0.2747-28.687a14.866 14.485 0 0 1 2.0199-6.8333 52.307 50.966 0 0 0-5.4133 17.792 129.17 125.86 0 0 0-0.5655 18.374 16.159 15.745 0 0 0 0.3716 3.2592z" style="fill:#e74a3b;opacity:.16;stroke-width:1.5951"/><path d="m998.74 557.14c-2.4238 3.9835 3.5226 3.7158 6.1404-0.2834 0.6786-1.0392 1.3088-2.0941 1.9067-3.149 7.3685-12.218 18.567-24.294 29.862-35.946a41.092 40.039 0 0 1 9.2591-7.8725 146.35 142.6 0 0 0-24.238 20.216c-7.2392 7.3844-13.638 15.068-19.908 22.751a38.264 37.284 0 0 0-3.0217 4.2826z" style="fill:#e74a3b;opacity:.4;stroke-width:1.5951"/><path d="m1213.9 557.14c2.4238 3.9835-3.5227 3.7158-6.1243-0.2834-0.6948-1.0392-1.325-2.0941-1.9229-3.149-7.3685-12.218-18.567-24.294-29.862-35.946a40.737 39.693 0 0 0-9.2591-7.8725 145.69 141.96 0 0 1 24.238 20.216c7.2392 7.3844 13.654 15.068 19.908 22.751a38.264 37.284 0 0 1 3.0218 4.2826z" style="fill:#e74a3b;opacity:.16;stroke-width:1.5951"/><path d="m1135.2 577c-0.6948 2.9758-4.9446 1.4958-4.3791-1.5745 0.1455-0.80299 0.3394-1.5745 0.5171-2.3302 2.1492-9.1321 1.3735-19.02 0.2747-28.687a14.866 14.485 0 0 0-2.0198-6.8333 52.307 50.966 0 0 1 5.4132 17.792 129.17 125.86 0 0 1 0.5656 18.39 16.159 15.745 0 0 1-0.3717 3.2435z" style="fill:#e74a3b;opacity:.16;stroke-width:1.5951"/><path d="m1021.5 395.83c-3.0864-0.53533-3.3288 3.8732-0.2424 4.5345 0.8079 0.17319 1.6159 0.29915 2.4077 0.44085 9.4691 1.5745 18.534 6.0933 27.276 10.801a15.06 14.674 0 0 1 5.688 4.4558 52.387 51.045 0 0 0-14.769-11.73 130.08 126.75 0 0 0-17.177-7.6048 16.692 16.265 0 0 0-3.1833-0.89746z" style="fill:#e74a3b;opacity:.16;stroke-width:1.5951"/><path d="m1050.4 336.93c-2.6663-1.5745-4.573 2.3775-1.9553 4.1094 0.6787 0.45661 1.3897 0.88172 2.0522 1.2753 8.1926 4.9124 14.866 12.407 21.152 19.965a14.656 14.281 0 0 1 3.5712 6.2035 52.193 50.856 0 0 0-9.1945-16.249 128.72 125.42 0 0 0-13.024-13.32 15.884 15.477 0 0 0-2.6016-1.9839z" style="fill:#e74a3b;opacity:.16;stroke-width:1.5951"/><path d="m948.95 482.27c-7.8533 3.9362-1.2119 14.753 6.8514 11.163 2.1168-0.94469 4.1852-1.9996 6.1404-2.9915 24.012-12.124 51.903-16.595 79.324-20.028 6.7221-0.85023 13.897-1.5745 20.134 1.0077-16.967-4.7235-35.049-5.0541-52.517-3.0703-17.468 1.9839-34.451 6.298-51.272 10.738a46.021 44.842 0 0 0-8.6612 3.1805z" style="fill:#e74a3b;stroke-width:1.5951"/><path d="m971.4 524.36c-5.6395 5.1328 3.2318 11.195 9.0975 6.298 1.5351-1.2911 3.0217-2.6451 4.4276-3.9362 17.209-15.745 39.945-26.94 62.568-37.252 5.5587-2.5349 28.44-5.1328 34.532-4.9911-15.949 1.4013-48.477 6.298-63.02 12.596a349.74 340.78 0 0 0-41.092 22.468 43.532 42.417 0 0 0-6.5121 4.818z" style="fill:#e74a3b;opacity:.4;stroke-width:1.5951"/><path d="m1038 599.94c-0.6949 7.4946 10.035 6.298 11.069-1.2438 0.2747-1.9681 0.4363-3.9362 0.5979-5.8099 2.0522-22.909 11.311-46.038 21.12-68.427 2.4077-5.495 17.678-22.295 22.332-26.152-10.94 11.399-31.882 36.213-38.281 50.384a348.82 339.89 0 0 0-15.222 43.425 44.453 43.314 0 0 0-1.6159 7.8252z" style="fill:#e74a3b;stroke-width:1.5951"/><path d="m1031.5 346.6a1.2604 1.2281 0 0 0 0.6625 0.18894c0.4363 0 0.7272-0.40936 0.9049-0.78724 0.9696-2.0311 0.404-4.7235 1.8906-6.3924a22.623 22.043 0 0 1 3.5873 5.8728l5.6395-1.7162a8.3865 8.1716 0 0 1-1.0665 6.298 8.6127 8.392 0 0 1 2.6662 1.7477 2.9571 2.8813 0 0 1 0.6787 2.9128 14.268 13.903 0 0 1-3.9751 0.39362 26.436 25.759 0 0 1-0.4201 7.2112 1.4381 1.4013 0 0 1-0.4848 0.92895 1.3897 1.3541 0 0 1-1.3897-0.22043 13.186 12.848 0 0 1-4.6376-4.8022l-2.1007 4.8809a2.1491 2.0941 0 0 1-0.9372 1.2281 1.5028 1.4643 0 0 1-1.7452-0.59831 4.2983 4.1882 0 0 1-0.6302-1.8422l-0.7756-4.7235a1.1634 1.1336 0 0 0-0.2747-0.64555 1.1311 1.1021 0 0 0-0.8241-0.23617c-1.9876 0-3.9913-0.0787-5.9788 0-0.3394-1.0234 0.7271-1.9839 1.7451-2.4247 1.0181-0.44086 2.2138-0.75576 2.7309-1.7162 1.0342-1.9681-1.6159-4.7235-0.5009-6.3924 1.3089-1.8894 3.4742 0 5.2355 0.83448z" style="fill:#e74a3b;stroke-width:1.5951"/><path d="m1014.5 572.98a1.4543 1.417 0 0 0 0.6626 0.20469c0.4362 0 0.7271-0.42512 0.9049-0.80299 0.9533-2.0311 0.4039-4.7235 1.8906-6.3924a22.623 22.043 0 0 1 3.5872 5.8729l5.6395-1.7004a8.4188 8.2031 0 0 1-1.0665 6.298 8.8228 8.5967 0 0 1 2.6501 1.7477 2.9248 2.8498 0 0 1 0.6948 2.9128 14.333 13.966 0 0 1-3.9751 0.39362 25.854 25.192 0 0 1-0.4363 7.2112 1.3412 1.3068 0 0 1-0.4847 0.92895c-0.404 0.25192-0.9534 0-1.3735-0.22043a13.186 12.848 0 0 1-4.6377-4.7235l-2.1006 4.8809a2.2138 2.1571 0 0 1-0.9372 1.2281 1.5189 1.48 0 0 1-1.7614-0.59831 4.4276 4.3141 0 0 1-0.614-1.8422l-0.7918-4.7235a1.0503 1.0234 0 0 0-0.2585-0.64555 1.1311 1.1021 0 0 0-0.8242-0.23617c-1.9875 0-3.9912-0.0787-5.9788 0-0.3393-1.0234 0.711-1.9839 1.729-2.4247s2.23-0.75576 2.7471-1.7162c1.0341-1.9681-1.6159-4.7235-0.5171-6.3924 1.2765-2.0468 3.5065-0.063 5.2516 0.74001z" style="fill:#e74a3b;opacity:.16;stroke-width:1.5951"/><path d="m966.64 421.23a1.2927 1.2596 0 0 0 0.67867 0.20468c0.42014 0 0.711-0.42511 0.88875-0.80299 0.96954-2.0311 0.42013-4.7235 1.8906-6.3767a22.219 21.649 0 0 1 3.5873 5.8571l5.6395-1.7004a8.3542 8.1401 0 0 1-1.0665 6.298 8.4673 8.2503 0 0 1 2.6662 1.7634 2.9571 2.8813 0 0 1 0.69483 2.8971 14.446 14.076 0 0 1-3.9913 0.39362 26.582 25.9 0 0 1-0.42014 7.2269 1.4058 1.3698 0 0 1-0.48476 0.91321 1.3574 1.3226 0 0 1-1.3735-0.22043 12.927 12.596 0 0 1-4.6538-4.8022l-2.0845 4.8809a2.2138 2.1571 0 0 1-0.93722 1.2281 1.5028 1.4643 0 0 1-1.7613-0.59831 4.2337 4.1252 0 0 1-0.6302-1.8422l-0.77563-4.6448a1.3897 1.3541 0 0 0-0.25854-0.66129 1.2604 1.2281 0 0 0-0.84027-0.23617h-5.9627c-0.3555-1.0234 0.711-1.9839 1.729-2.4247 1.018-0.44086 2.2299-0.75576 2.7309-1.7162 1.0342-1.9681-1.6159-4.7235-0.50093-6.3924 1.325-2.0311 3.5065-0.0787 5.2355 0.75576z" style="fill:#e74a3b;stroke-width:1.5951"/><path d="m1157.8 595.68a1.7452 1.7005 0 0 0 0.9211 0.26766c0.5979 0 1.018-0.58256 1.2604-1.1021 1.3412-2.8341 0.5656-6.5027 2.6339-8.8959a31.251 30.451 0 0 1 4.9931 8.1716l7.8694-2.3775a11.748 11.447 0 0 1-1.4866 8.7699 12.507 12.187 0 0 1 3.7004 2.4562 4.1529 4.0464 0 0 1 0.9696 4.0622 20.183 19.665 0 0 1-5.5587 0.53533 36.325 35.395 0 0 1-0.5979 10.061 1.4543 1.417 0 0 1-2.5854 0.97619 18.082 17.619 0 0 1-6.4636-6.6916l-2.9248 6.8018a3.1025 3.023 0 0 1-1.3089 1.7162 2.133 2.0783 0 0 1-2.4561-0.83448 6.1727 6.0146 0 0 1-0.8565-2.5822l-1.0988-6.4712a1.6159 1.5745 0 0 0-0.3555-0.9132 1.7129 1.669 0 0 0-1.1634-0.33065c-2.7794-0.0787-5.5587-0.0945-8.3219-0.0787-0.4848-1.4328 1.0019-2.7711 2.4077-3.3852s3.1025-1.0549 3.8135-2.3932c1.4543-2.7396-2.2946-6.5499-0.6948-8.9116 1.8583-2.7396 4.88-0.0157 7.3038 1.1494z" style="fill:#e74a3b;stroke-width:1.5951"/><path d="m1237.3 425.75a1.9714 1.9209 0 0 0 0.9373 0.26767c0.5817 0 1.0018-0.58257 1.2604-1.1022 1.325-2.8341 0.5655-6.5184 2.6177-8.8959a31.462 30.655 0 0 1 5.0093 8.1559l7.8533-2.3617a11.618 11.321 0 0 1-1.4867 8.7699 11.748 11.447 0 0 1 3.7004 2.4562 4.0882 3.9835 0 0 1 0.9696 4.0464 20.069 19.555 0 0 1-5.5587 0.55107 36.907 35.961 0 0 1-0.5817 10.061 1.8906 1.8422 0 0 1-0.6787 1.2753c-0.5817 0.36214-1.3251 0-1.9229-0.3149a18.276 17.808 0 0 1-6.4636-6.6758l-2.9248 6.8018a3.0702 2.9915 0 0 1-1.2927 1.7005 2.1007 2.0468 0 0 1-2.4562-0.81874 6.2697 6.109 0 0 1-0.8726-2.5822l-1.0826-6.4712a1.7775 1.7319 0 0 0-0.3717-0.92896 1.6159 1.5745 0 0 0-1.1634-0.31489c-2.7632-0.0787-5.5425-0.11022-8.3219-0.0787-0.4686-1.4485 1.0019-2.7711 2.4239-3.3852 1.4219-0.61405 3.1025-1.0549 3.8135-2.3932 1.4381-2.7396-2.2946-6.5499-0.711-8.9116 1.8583-2.7396 4.88 0 7.3038 1.1494z" style="fill:#e74a3b;stroke-width:1.5951"/><path d="m995.94 530.99a1.0827 1.0549 0 0 0 0.48477 0.15745 0.95338 0.92895 0 0 0 0.67868-0.59831c0.711-1.5745 0.29086-3.4639 1.3897-4.7235a16.531 16.107 0 0 1 2.65 4.3299l4.1852-1.2596a6.205 6.0461 0 0 1-0.7918 4.7235 6.3182 6.1563 0 0 1 1.9714 1.2911 2.2138 2.1571 0 0 1 0.501 2.157 10.002 9.7461 0 0 1-2.941 0.28341 19.003 18.516 0 0 1-0.3232 5.3533 1.0019 0.97619 0 0 1-0.3555 0.67704c-0.307 0.18894-0.711 0-1.018-0.15745a9.6954 9.447 0 0 1-3.4257-3.5584l-1.6159 3.6213a1.6159 1.5745 0 0 1-0.69484 0.89746 1.1311 1.1021 0 0 1-1.3089-0.44086 3.2318 3.149 0 0 1-0.45245-1.3698l-0.58172-3.4324a0.9049 0.88172 0 0 0-0.19391-0.4881 0.84027 0.81874 0 0 0-0.61404-0.17319h-4.4276c-0.25854-0.75576 0.53325-1.4643 1.2766-1.7949 0.74331-0.33065 1.6159-0.56682 2.036-1.2753 0.75947-1.4485-1.2281-3.4796-0.37165-4.7235 0.85642-1.2438 2.7147-0.11021 3.9428 0.50384z" style="fill:#e74a3b;opacity:.16;stroke-width:1.5951"/><path d="m1104 591.76a0.95338 0.92895 0 0 0 0.501 0.14171c0.307 0 0.5332-0.29916 0.6625-0.58256 0.711-1.5745 0.307-3.4639 1.3896-4.7235a16.579 16.154 0 0 1 2.6663 4.3298l4.169-1.2596a6.1404 5.9831 0 0 1-0.7918 4.7235 6.6575 6.4869 0 0 1 1.9714 1.3068 2.1815 2.1256 0 0 1 0.5171 2.157 10.697 10.423 0 0 1-2.9571 0.28341 19.617 19.114 0 0 1-0.307 5.3533 1.0827 1.0549 0 0 1-0.3555 0.67703c-0.307 0.18894-0.711 0-1.018-0.1732a9.5338 9.2895 0 0 1-3.4419-3.5426l-1.6159 3.6056a1.729 1.6847 0 0 1-0.6948 0.91321 1.1311 1.1021 0 0 1-1.3089-0.44086 3.2318 3.149 0 0 1-0.4525-1.3698l-0.5817-3.4481a0.82411 0.80299 0 0 0-0.1939-0.47235 0.84027 0.81874 0 0 0-0.614-0.17319h-4.4276c-0.2424-0.7715 0.5332-1.48 1.2927-1.7949s1.6159-0.56682 2.0199-1.2753c0.7756-1.4643-1.2119-3.4796-0.3717-4.7235 0.8403-1.2438 2.6501-0.12596 3.9428 0.48809z" style="fill:#e74a3b;opacity:.16;stroke-width:1.5951"/><path d="m1208.6 379.07a1.115 1.0864 0 0 0 0.4847 0.1417c0.3232 0 0.5495-0.3149 0.6787-0.59831 0.711-1.4958 0.307-3.4481 1.3897-4.7235a16.676 16.249 0 0 1 2.6662 4.3456l4.169-1.2596a6.1566 5.9988 0 0 1-0.7917 4.7235 6.3666 6.2035 0 0 1 1.9713 1.3068 2.1653 2.1098 0 0 1 0.5171 2.1413 10.762 10.486 0 0 1-2.9571 0.29915 19.391 18.894 0 0 1-0.307 5.3375 1.018 0.99193 0 0 1-0.3716 0.67704 1.0019 0.97619 0 0 1-1.018-0.15745 9.6954 9.447 0 0 1-3.4258-3.5584l-1.6158 3.6213a1.6159 1.5745 0 0 1-0.6949 0.89746 1.115 1.0864 0 0 1-1.3089-0.42511 3.2318 3.149 0 0 1-0.4524-1.3856l-0.5817-3.4324a0.9049 0.88172 0 0 0-0.1939-0.4881 0.84027 0.81874 0 0 0-0.6141-0.17319h-4.4275c-0.2424-0.75576 0.5332-1.4643 1.2927-1.7949 0.7594-0.33065 1.6159-0.55107 2.0198-1.2753 0.7757-1.4485-1.228-3.4639-0.3716-4.7235s2.6501-0.0472 3.9428 0.50384z" style="fill:#e74a3b;opacity:.4;stroke-width:1.5951"/><path d="m1152.9 498.93a1.2119 1.1809 0 0 0 0.4848 0.14171c0.3232 0 0.5333-0.3149 0.6625-0.59831 0.711-1.4958 0.307-3.4481 1.4059-4.7235a17.048 16.611 0 0 1 2.65 4.3456l4.1852-1.2596a6.3182 6.1563 0 0 1-0.7918 4.7235 6.1081 5.9516 0 0 1 1.9552 1.3068 2.1491 2.0941 0 0 1 0.5171 2.1413 10.649 10.376 0 0 1-2.9409 0.29916 19.391 18.894 0 0 1-0.3232 5.3375 1.0019 0.97619 0 0 1-0.3555 0.67703 1.0019 0.97619 0 0 1-1.018-0.15745 9.8247 9.5729 0 0 1-3.458-3.5426l-1.6159 3.6213a1.6159 1.5745 0 0 1-0.6948 0.89746 1.0988 1.0707 0 0 1-1.2928-0.44086 3.2318 3.149 0 0 1-0.4686-1.3698l-0.5817-3.4324a0.66252 0.64554 0 0 0-0.8079-0.66129h-4.4114c-0.2586-0.75576 0.517-1.4643 1.2765-1.7949 0.7595-0.33065 1.6159-0.55108 2.0199-1.2753 0.7756-1.4485-1.2119-3.4796-0.3717-4.7235 0.8403-1.2438 2.6824-0.1417 3.9751 0.48809z" style="fill:#e74a3b;opacity:.4;stroke-width:1.5951"/><path d="m1193.3 452.2a0.85643 0.83448 0 0 0 0.4848 0.14171c0.3232 0 0.5332-0.3149 0.6625-0.59831 0.711-1.4958 0.307-3.4481 1.4058-4.7235a16.611 16.186 0 0 1 2.6501 4.3456l4.1852-1.2596a6.302 6.1405 0 0 1-0.7918 4.7235 6.3666 6.2035 0 0 1 1.9714 1.3068 2.1976 2.1413 0 0 1 0.5009 2.1413 10.584 10.313 0 0 1-2.9409 0.29915 19.391 18.894 0 0 1-0.3232 5.3375 0.96954 0.9447 0 0 1-0.3555 0.67703 1.0019 0.97619 0 0 1-1.018-0.15745 9.7762 9.5257 0 0 1-3.4419-3.5426l-1.6159 3.6056a1.6159 1.5745 0 0 1-0.6787 0.89746 1.0988 1.0707 0 0 1-1.3088-0.42511 3.2318 3.149 0 0 1-0.4686-1.3698l-0.5656-3.4481a0.9049 0.88172 0 0 0-0.1939-0.48809 1.0342 1.0077 0 0 0-0.6302-0.17319h-4.4114c-0.2586-0.75576 0.5332-1.4643 1.2765-1.7792 0.7434-0.3149 1.6159-0.56682 2.0361-1.2911 0.7594-1.4485-1.2281-3.4639-0.3878-4.7235 0.8402-1.2596 2.6662-0.12596 3.9589 0.50383z" style="fill:#e74a3b;opacity:.4;stroke-width:1.5951"/><path d="m1019.9 463.21a1.2119 1.1809 0 0 0 0.4848 0.1417c0.3231 0 0.5332-0.3149 0.6625-0.5983 0.711-1.4958 0.307-3.4481 1.4058-4.7235a16.611 16.186 0 0 1 2.6501 4.3456l4.1852-1.2596a6.302 6.1405 0 0 1-0.7918 4.7235 6.3666 6.2035 0 0 1 1.9714 1.3068 2.1815 2.1256 0 0 1 0.5009 2.1413 10.584 10.313 0 0 1-2.9409 0.29915 19.391 18.894 0 0 1-0.3232 5.3375 1.0019 0.97619 0 0 1-0.3555 0.67703 1.0019 0.97619 0 0 1-1.018-0.15745 9.8247 9.5729 0 0 1-3.4419-3.5584l-1.6159 3.6213a1.6159 1.5745 0 0 1-0.6948 0.89746 1.115 1.0864 0 0 1-1.2927-0.44086 3.2318 3.149 0 0 1-0.4687-1.3698l-0.5817-3.4324a0.88874 0.86597 0 0 0-0.1777-0.4881 0.85643 0.83448 0 0 0-0.6302-0.17319h-4.4114c-0.2586-0.75576 0.5332-1.4643 1.2765-1.7949s1.6159-0.55107 2.0361-1.2753c0.7594-1.4485-1.2281-3.4796-0.3879-4.7235 0.8403-1.2438 2.6501-0.12596 3.959 0.50384z" style="fill:#e74a3b;opacity:.4;stroke-width:1.5951"/><path d="m1104 454.09a1.115 1.0864 0 0 0 0.501 0.14171c0.307 0 0.5332-0.3149 0.6625-0.59831 0.711-1.5745 0.307-3.4481 1.3896-4.7235a16.676 16.249 0 0 1 2.6663 4.3456l4.169-1.2596a6.1566 5.9988 0 0 1-0.7918 4.7235 6.3666 6.2035 0 0 1 1.9714 1.3068 2.1653 2.1098 0 0 1 0.5171 2.1413 10.697 10.423 0 0 1-2.9571 0.29915 19.391 18.894 0 0 1-0.307 5.3375 1.0827 1.0549 0 0 1-0.3555 0.67703 1.0019 0.97619 0 0 1-1.018-0.15745 9.6954 9.447 0 0 1-3.4419-3.5584l-1.6159 3.6213a1.6159 1.5745 0 0 1-0.6948 0.89747 1.1311 1.1021 0 0 1-1.3089-0.42512 3.2318 3.149 0 0 1-0.4525-1.3856l-0.5817-3.4324a0.9049 0.88172 0 0 0-0.1939-0.48809 0.84027 0.81874 0 0 0-0.614-0.17319h-4.4276c-0.2424-0.75576 0.5332-1.4643 1.2927-1.7949 0.7595-0.33064 1.6159-0.55107 2.0199-1.2753 0.7756-1.4485-1.2119-3.4639-0.3717-4.7235 0.8403-1.2596 2.6501-0.20469 3.9428 0.50383z" style="fill:#e74a3b;opacity:.16;stroke-width:1.5951"/><path d="m1130.4 465.21a1.0019 0.97619 0 0 0 0.4848 0.14171c0.3232 0 0.5333-0.3149 0.6625-0.59831 0.711-1.4958 0.3071-3.4481 1.4059-4.7235a16.611 16.186 0 0 1 2.65 4.3456l4.1852-1.2596a6.302 6.1405 0 0 1-0.7918 4.7235 6.3666 6.2035 0 0 1 1.9714 1.3068 2.1976 2.1413 0 0 1 0.5009 2.1413 10.584 10.313 0 0 1-2.9409 0.29915 19.391 18.894 0 0 1-0.3232 5.3375 1.0019 0.97619 0 0 1-0.3555 0.67703 1.0019 0.97619 0 0 1-1.018-0.15745 9.8247 9.5729 0 0 1-3.4418-3.5584l-1.6159 3.6213a1.6159 1.5745 0 0 1-0.6949 0.89746 1.0827 1.0549 0 0 1-1.2927-0.42511 3.2318 3.149 0 0 1-0.4686-1.3698l-0.5817-3.4481a0.88874 0.86597 0 0 0-0.1778-0.48809 1.0342 1.0077 0 0 0-0.6302-0.17319h-4.4114c-0.2585-0.75576 0.5333-1.4643 1.2766-1.7949 0.7433-0.33064 1.6159-0.55107 2.036-1.2753 0.7595-1.4485-1.2281-3.4639-0.3878-4.7235 0.8403-1.2596 2.6662-0.12596 3.9589 0.50383z" style="fill:#e74a3b;opacity:.24;stroke-width:1.5951"/><path d="m1155.1 397.41a1.3735 1.3383 0 0 0 0.5009 0.1417c0.307 0 0.5332-0.31489 0.6625-0.5983 0.711-1.4958 0.307-3.4481 1.3897-4.7235a16.676 16.249 0 0 1 2.6662 4.3456l4.169-1.2596a6.1727 6.0146 0 0 1-0.7918 4.7235 6.609 6.4397 0 0 1 1.9714 1.2911 2.1976 2.1413 0 0 1 0.5171 2.157 10.164 9.9036 0 0 1-2.9571 0.28341 19.585 19.083 0 0 1-0.307 5.3533 1.0827 1.0549 0 0 1-0.3555 0.67703 1.0019 0.97619 0 0 1-1.018-0.15745 9.6954 9.447 0 0 1-3.4419-3.5584l-1.6159 3.6213a1.6159 1.5745 0 0 1-0.6948 0.89746 1.1311 1.1021 0 0 1-1.3089-0.44086 3.2318 3.149 0 0 1-0.4524-1.3698l-0.5818-3.4324a0.9049 0.88172 0 0 0-0.1939-0.48809 0.84027 0.81874 0 0 0-0.614-0.1732h-4.4276c-0.2423-0.75575 0.5333-1.4643 1.2928-1.7949 0.7594-0.33064 1.6159-0.56682 2.0198-1.2753 0.7757-1.4485-1.2119-3.4796-0.3716-4.7235 0.8402-1.2438 2.65-0.0787 3.9428 0.50384z" style="fill:#e74a3b;opacity:.16;stroke-width:1.5951"/><path d="m1106.6 485.86a0.95338 0.92895 0 0 0 0.5009 0.14171c0.307 0 0.5333-0.3149 0.6625-0.59831 0.711-1.4958 0.3071-3.4481 1.3897-4.7235a16.676 16.249 0 0 1 2.6662 4.3456l4.169-1.2596a6.1566 5.9988 0 0 1-0.7917 4.7235 6.3666 6.2035 0 0 1 1.9714 1.3068 2.1815 2.1256 0 0 1 0.517 2.1571 11.424 11.132 0 0 1-2.9571 0.28341 19.391 18.894 0 0 1-0.307 5.3375 1.0019 0.97619 0 0 1-0.3555 0.67703c-0.307 0.20468-0.711 0-1.0341-0.15745a9.6954 9.447 0 0 1-3.4257-3.5426l-1.6159 3.6056a1.6159 1.5745 0 0 1-0.6949 0.89746 1.0988 1.0707 0 0 1-1.3089-0.42511 3.2318 3.149 0 0 1-0.4524-1.3698l-0.5817-3.4481a0.9049 0.88172 0 0 0-0.1939-0.48809 1.018 0.99193 0 0 0-0.6141-0.1732h-4.4275c-0.2424-0.7715 0.5332-1.48 1.2927-1.7949s1.6159-0.56682 2.0199-1.2753c0.7756-1.4643-1.212-3.4796-0.3717-4.7235s2.6501-0.12596 3.9428 0.50384z" style="fill:#e74a3b;opacity:.24;stroke-width:1.5951"/></g><g transform="translate(-852.06 -86.678)" style="opacity:.6"><path d="m1198.8 124.17a3.2318 3.149 0 0 1 5.2517 3.6528c-0.5979 0.88171-1.2604 1.7477-1.8906 2.5664-7.5786 9.9665-11.505 22.043-14.899 34.056-0.8241 2.9443-1.6159 6.0775-0.6787 8.9904a57.51 56.036 0 0 1 1.6159-23.46 149.12 145.29 0 0 1 8.5158-22.137 19.762 19.256 0 0 1 2.0845-3.6686z" style="fill:#4e73df;opacity:.3;stroke-width:1.5951"/><path d="m1248 145.16c5.1224-0.15745 5.7688 7.4001 0.6787 7.8725-1.3412 0.0945-2.6824 0.12596-3.9751 0.15745-15.674 0.42511-30.476 5.9673-44.712 11.903-3.5065 1.4643-7.1746 3.149-9.2106 6.298a67.141 65.42 0 0 1 23.851-16.469 174.89 170.41 0 0 1 28.149-8.8486 23.14 22.547 0 0 1 5.2193-0.91321z" style="fill:#4e73df;stroke-width:1.5951"/><path d="m1246.6 163.74c3.2318 0.12596 2.5047 4.5975-0.7594 4.629h-2.5047c-9.8893-0.39363-20.005 2.2673-29.829 5.1801a15.529 15.131 0 0 0-6.706 3.2907 54.133 52.746 0 0 1 17.436-8.7227 135.28 131.82 0 0 1 18.938-4.1252 18.26 17.792 0 0 1 3.4257-0.25192z" style="fill:#4e73df;opacity:.12;stroke-width:1.5951"/><path d="m1180.5 246.92c-0.921 3.023-5.187 1.2281-4.4114-1.8422 0.2101-0.81873 0.4525-1.5745 0.6949-2.3617 2.8278-9.2265 2.6985-19.445 2.2299-29.443a15.238 14.847 0 0 0-1.6159-7.1325 53.858 52.478 0 0 1 4.3952 18.611 133.89 130.46 0 0 1-0.6625 18.894 17.92 17.461 0 0 1-0.6302 3.275z" style="fill:#4e73df;opacity:.3;stroke-width:1.5951"/><path d="m1240.7 119.98c1.9553-0.33064 2.1007 2.4247 0.1616 2.8498-0.5171 0.11022-1.018 0.18894-1.5028 0.26767-5.9626 0.99193-11.651 3.826-17.145 6.7861a9.1945 8.9589 0 0 0-3.5712 2.8026 32.77 31.931 0 0 1 9.2753-7.3686 79.874 77.827 0 0 1 10.794-4.7235 9.6954 9.447 0 0 1 1.9875-0.61405z" style="fill:#4e73df;opacity:.12;stroke-width:1.5951"/><path d="m1270.7 193.15c4.9285 2.472 0.7595 9.258-4.3144 7.0065-1.325-0.58256-2.6177-1.2438-3.8458-1.8736-15.092-7.6205-32.609-10.423-49.834-12.596-4.2337-0.51958-8.742-0.99193-12.652 0.64554a85.319 83.133 0 0 1 32.997-1.9366 215.56 210.04 0 0 1 32.205 6.7546 27.713 27.003 0 0 1 5.4455 1.9996z" style="fill:#4e73df;stroke-width:1.5951"/><path d="m1256.6 219.59c3.5549 3.2277-1.9876 7.038-5.7042 3.9362-0.9695-0.80299-1.9067-1.669-2.7793-2.472-10.81-9.8878-25.095-16.926-39.315-23.413-3.4903-1.5745-17.775-3.149-21.702-3.149 10.019 0.86597 30.492 3.9205 39.59 7.9512a219.42 213.8 0 0 1 25.854 14.17 27.47 26.766 0 0 1 4.0559 2.9758z" style="fill:#4e73df;opacity:.3;stroke-width:1.5951"/><path d="m1231.3 261.8c1.0341 4.6133-5.7365 4.7235-6.9969 0-0.3231-1.2124-0.5978-2.4247-0.8564-3.5898-3.1187-14.17-10.762-27.821-18.68-41.031-1.939-3.2277-12.814-12.596-16.03-14.58 7.7402 6.298 22.8 20.106 27.923 28.467a218.36 212.76 0 0 1 12.927 25.9 29.329 28.577 0 0 1 1.7129 4.8337z" style="fill:#4e73df;stroke-width:1.5951"/><path d="m1180.4 99.735c2.4238-4.7235 9.3237-0.85023 7.1261 4.0779-0.5656 1.2911-1.2119 2.5507-1.826 3.7473-7.4331 14.659-10.002 31.616-11.909 48.29-0.4686 4.0937-0.8726 8.4393 0.8402 12.202a85.643 83.448 0 0 1-2.4561-31.836 216.68 211.12 0 0 1 6.3504-31.206 28.811 28.073 0 0 1 1.8745-5.2745z" style="fill:#4e73df;stroke-width:1.5951"/><path d="m1218.9 107.91a0.92106 0.89746 0 0 1-0.404 0.12596 0.74331 0.72427 0 0 1-0.5656-0.50384c-0.614-1.2753-0.2585-2.9286-1.1957-4.015a14.188 13.824 0 0 0-2.2461 3.6843l-3.6681-1.0707a5.3163 5.1801 0 0 0 0.6787 3.9677 5.2193 5.0856 0 0 0-1.6159 1.1021 1.8421 1.7949 0 0 0-0.4202 1.8264 9.2268 8.9904 0 0 0 2.5047 0.23618 16.046 15.635 0 0 0 0.2585 4.5345 0.87258 0.85023 0 0 0 0.307 0.58256 0.84027 0.81874 0 0 0 0.8565-0.14171 8.0795 7.8725 0 0 0 2.9247-3.0073l1.3089 3.149a1.325 1.2911 0 0 0 0.5979 0.75575 0.92106 0.89746 0 0 0 1.0988-0.36213 2.747 2.6766 0 0 0 0.3878-1.1651l0.501-2.9286a0.67868 0.66129 0 0 1 0.1615-0.40937 0.72715 0.70852 0 0 1 0.5171-0.1417h3.7489c0.2262-0.64554-0.4363-1.2596-1.0826-1.5745-0.6464-0.31489-1.3897-0.47234-1.7129-1.0864-0.6625-1.2281 1.0342-2.9443 0.307-4.015-0.7271-1.0707-2.1976-0.063-3.2479 0.4566z" style="fill:#4e73df;stroke-width:1.5951"/><path d="m1150.5 124.17a3.2328 3.15 0 0 0-5.2679 3.6528c0.6141 0.88171 1.2604 1.7477 1.8906 2.5664 7.5786 9.9665 11.521 22.043 14.899 34.056 0.8403 2.9443 1.6159 6.0775 0.6949 8.9904a57.526 56.052 0 0 0-1.6159-23.46 147.42 143.64 0 0 0-8.5158-22.137 19.682 19.177 0 0 0-2.0845-3.6686z" style="fill:#4e73df;opacity:.3;stroke-width:1.5951"/><path d="m1101.3 145.16c-5.1062-0.15745-5.7687 7.4001-0.6625 7.8725 1.3251 0.0945 2.6824 0.12596 3.959 0.15745 15.674 0.42511 30.492 5.9673 44.728 11.903 3.4903 1.4643 7.1584 3.149 9.1945 6.298a67.141 65.42 0 0 0-23.851-16.469 175.23 170.74 0 0 0-28.133-8.8486 23.431 22.83 0 0 0-5.2355-0.91321z" style="fill:#4e73df;stroke-width:1.5951"/><path d="m1102.6 163.74c-3.2318 0.12596-2.4885 4.5975 0.7594 4.629h2.5047c9.8893-0.39363 20.005 2.2673 29.83 5.1801a15.432 15.036 0 0 1 6.7059 3.2907 53.971 52.588 0 0 0-17.436-8.7227 135.28 131.82 0 0 0-18.971-4.0622 18.26 17.792 0 0 0-3.3934-0.3149z" style="fill:#4e73df;opacity:.3;stroke-width:1.5951"/><path d="m1108.6 119.98c-1.9552-0.33064-2.1007 2.4247-0.1616 2.8498 0.5171 0.11022 1.018 0.18894 1.519 0.26767 5.9465 0.99193 11.651 3.826 17.128 6.7861a9.1945 8.9589 0 0 1 3.5711 2.8026 32.706 31.868 0 0 0-9.2591-7.3686 80.989 78.914 0 0 0-10.81-4.7235 9.356 9.1163 0 0 0-1.9876-0.61405z" style="fill:#4e73df;opacity:.12;stroke-width:1.5951"/><path d="m1159.1 252.65c0.4363 1.8736 3.1025 0.9447 2.747-0.96044 0-0.50384-0.2101-0.99193-0.3232-1.4643-1.3573-5.7312-0.8564-11.95-0.1777-18.028a9.3399 9.1006 0 0 1 1.2765-4.2826 32.69 31.852 0 0 0-3.3933 11.179 83.057 80.929 0 0 0-0.3717 11.541 9.9055 9.6516 0 0 0 0.2424 2.0154z" style="fill:#4e73df;opacity:.12;stroke-width:1.5951"/><path d="m1109.8 240.18c-1.5189 2.5034 2.2138 2.3302 3.8459-0.1732 0.4363-0.66128 0.8241-1.3226 1.2119-1.9524 4.6215-7.6678 11.667-15.257 18.761-22.578a25.967 25.302 0 0 1 5.801-4.8967 92.009 89.652 0 0 0-15.238 12.706c-4.5568 4.629-8.5642 9.447-12.507 14.296a25.757 25.097 0 0 0-1.8745 2.5979z" style="fill:#4e73df;opacity:.3;stroke-width:1.5951"/><path d="m1245 240.18c1.5189 2.5034-2.2138 2.3302-3.862-0.1732-0.4201-0.66128-0.8241-1.3226-1.1958-1.9524-4.6214-7.6678-11.667-15.257-18.76-22.578a26.048 25.381 0 0 0-5.8173-4.8967 92.106 89.746 0 0 1 15.254 12.706c4.5407 4.629 8.5643 9.447 12.507 14.296a25.757 25.097 0 0 1 1.8745 2.5979z" style="fill:#4e73df;opacity:.12;stroke-width:1.5951"/><path d="m1195.5 252.65c-0.4363 1.8736-3.1025 0.9447-2.7632-0.96044 0.097-0.50384 0.2101-0.99193 0.3232-1.4643 1.3573-5.7312 0.8726-11.95 0.1777-18.028a9.146 8.9116 0 0 0-1.2604-4.2826 32.69 31.852 0 0 1 3.3934 11.179 80.795 78.725 0 0 1 0.3555 11.541 11.101 10.817 0 0 1-0.2262 2.0154z" style="fill:#4e73df;opacity:.12;stroke-width:1.5951"/><path d="m1124.1 138.81c-1.9391-0.33065-2.0845 2.4405-0.1454 2.8498 0.5009 0.11021 1.018 0.18894 1.5027 0.28341 5.9627 0.97618 11.651 3.826 17.145 6.7861a9.4207 9.1793 0 0 1 3.5711 2.7868 32.722 31.883 0 0 0-9.2752-7.3529 79.971 77.922 0 0 0-10.794-4.7235 10.568 10.297 0 0 0-2.0037-0.62979z" style="fill:#4e73df;opacity:.12;stroke-width:1.5951"/><path d="m1142.3 101.83c-1.6159-1.0077-2.8763 1.5745-1.2442 2.5822l1.2927 0.80299c5.1386 3.149 9.3399 7.8725 13.299 12.596a9.1945 8.9589 0 0 1 2.23 3.889 32.56 31.726 0 0 0-5.7688-10.203 80.601 78.536 0 0 0-8.1764-8.3606 10.439 10.171 0 0 0-1.6321-1.3068z" style="fill:#4e73df;opacity:.12;stroke-width:1.5951"/><path d="m1078.5 193.15c-4.9285 2.472-0.7595 9.258 4.3144 7.0065 1.325-0.58256 2.6178-1.2438 3.862-1.8736 15.076-7.6205 32.593-10.423 49.818-12.596 4.2337-0.51958 8.742-0.99193 12.652 0.64554a85.255 83.07 0 0 0-32.98-1.9366 215.33 209.82 0 0 0-32.221 6.7546 28.504 27.774 0 0 0-5.4455 1.9996z" style="fill:#4e73df;stroke-width:1.5951"/><path d="m1092.6 219.59c-3.5549 3.2277 1.9876 7.038 5.7042 3.9362 0.9695-0.80299 1.9067-1.669 2.7955-2.472 10.81-9.8878 25.079-16.926 39.315-23.413 3.4741-1.5745 17.856-3.149 21.685-3.149-10.019 0.86597-30.476 3.9205-39.573 7.9512a218.34 212.75 0 0 0-25.854 14.17 27.47 26.766 0 0 0-4.0721 2.9758z" style="fill:#4e73df;opacity:.3;stroke-width:1.5951"/><path d="m1134.4 267.07c-0.4363 4.7235 6.302 3.9362 6.9483-0.78725 0.1616-1.2281 0.2747-2.472 0.3878-3.6528 1.2766-14.391 7.11-28.923 13.266-42.984 1.5028-3.4639 11.101-14.013 14.01-16.438-6.8676 7.1639-20.021 22.736-24.045 31.647a220.38 214.73 0 0 0-9.5661 27.302 26.792 26.105 0 0 0-1.0018 4.9124z" style="fill:#4e73df;stroke-width:1.5951"/><path d="m1130.4 107.91a0.9857 0.96044 0 0 0 0.4201 0.12596c0.2586 0 0.4525-0.26766 0.5656-0.50384 0.5979-1.2753 0.2586-2.9286 1.1796-4.015a14.236 13.871 0 0 1 2.2623 3.6843l3.5388-1.0707a5.2355 5.1014 0 0 1-0.6787 3.9677 5.2193 5.0856 0 0 1 1.6159 1.1021 1.8421 1.7949 0 0 1 0.4363 1.8264 9.356 9.1163 0 0 1-2.5046 0.23618 16.644 16.217 0 0 1-0.2747 4.5345 0.87258 0.85023 0 0 1-0.3071 0.58256 0.84027 0.81874 0 0 1-0.8564-0.14171 8.0795 7.8725 0 0 1-2.9248-3.0073l-1.3088 3.149a1.3735 1.3383 0 0 1-0.5818 0.75575 0.93722 0.91321 0 0 1-1.1149-0.36213 2.747 2.6766 0 0 1-0.3879-1.1651l-0.5009-2.9286a0.67868 0.66129 0 0 0-0.1616-0.40937 0.72715 0.70852 0 0 0-0.5171-0.1417h-3.7488c-0.2263-0.64554 0.4524-1.2596 1.0826-1.5745 0.6302-0.31489 1.4058-0.47234 1.729-1.0864 0.6464-1.2281-1.0503-2.9443-0.3232-4.015 0.7272-1.0707 2.2623-0.063 3.3611 0.4566z" style="fill:#4e73df;stroke-width:1.5951"/><path d="m1119.7 250.13a0.9857 0.96044 0 0 0 0.4201 0.12596c0.2747 0 0.4525-0.26766 0.5656-0.50383 0.5978-1.2753 0.2585-2.9286 1.1796-4.015a14.074 13.714 0 0 1 2.2622 3.6843l3.5388-1.0706a5.3001 5.1643 0 0 1-0.6625 3.9677 5.6233 5.4792 0 0 1 1.6159 1.1021 1.8421 1.7949 0 0 1 0.4363 1.8264 9.356 9.1163 0 0 1-2.5046 0.23617 16.757 16.327 0 0 1-0.2586 4.5503 0.85643 0.83448 0 0 1-0.307 0.56682c-0.2585 0.15745-0.5979 0-0.8726-0.1417a8.2088 7.9984 0 0 1-2.9086-3.0073l-1.325 3.0703a1.3897 1.3541 0 0 1-0.5817 0.7715 0.93722 0.91321 0 0 1-1.0989-0.37788 2.7632 2.6924 0 0 1-0.4039-1.1651l-0.4848-2.9128a0.93722 0.91321 0 0 0-0.1616-0.42511 0.74331 0.72427 0 0 0-0.5332-0.1417h-3.7489c-0.2101-0.64555 0.4524-1.2596 1.0826-1.5745 0.6302-0.31489 1.4059-0.47234 1.729-1.0864 0.6464-1.2281-1.0341-2.9443-0.3231-4.015 0.711-1.0707 2.2461 0.0157 3.3449 0.53532z" style="fill:#4e73df;opacity:.12;stroke-width:1.5951"/><path d="m1089.7 154.8a1.0503 1.0234 0 0 0 0.4201 0.12596c0.2747 0 0.4525-0.26767 0.5656-0.50384 0.614-1.2753 0.2585-2.9286 1.1958-4.015a14.446 14.076 0 0 1 2.2461 3.6843l3.5549-1.0707a5.3163 5.1801 0 0 1-0.6786 3.9677 5.1547 5.0226 0 0 1 1.6159 1.1022 1.8421 1.7949 0 0 1 0.4362 1.8264 9.2914 9.0533 0 0 1-2.5046 0.23617 16.757 16.327 0 0 1-0.2585 4.5503 0.85643 0.83448 0 0 1-0.3071 0.56682 0.84027 0.81874 0 0 1-0.8564-0.14171 8.0795 7.8725 0 0 1-2.9248-3.0073l-1.325 3.149a1.3897 1.3541 0 0 1-0.5817 0.7715 0.93722 0.91321 0 0 1-1.0988-0.37788 2.5531 2.4877 0 0 1-0.3878-1.1651l-0.501-2.9128a0.69484 0.67703 0 0 0-0.1616-0.42511 0.72715 0.70852 0 0 0-0.5171-0.1417h-3.765c-0.2101-0.64555 0.4525-1.2596 1.0988-1.5745 0.6464-0.3149 1.3897-0.47234 1.7129-1.0864 0.6625-1.2281-1.0342-2.9443-0.3232-4.015 0.711-1.0707 2.2461-0.063 3.3449 0.4566z" style="fill:#4e73df;stroke-width:1.5951"/><path d="m1209.7 264.4a1.0665 1.0392 0 0 0 0.5817 0.17319c0.3717 0 0.6302-0.36213 0.7918-0.69277 0.8403-1.7949 0.3555-4.0937 1.6159-5.5894a19.52 19.02 0 0 1 3.1349 5.1328l4.9446-1.5745a7.3362 7.1482 0 0 1-0.9372 5.5107 7.7078 7.5103 0 0 1 2.3269 1.5745 2.6016 2.5349 0 0 1 0.614 2.5507 12.749 12.423 0 0 1-3.4903 0.33064 23.673 23.066 0 0 1-0.3717 6.298 1.2281 1.1966 0 0 1-0.4363 0.80299c-0.3554 0.22043-0.8241 0-1.1957-0.18893a11.602 11.305 0 0 1-4.0398-4.1252l-1.8259 4.2669a1.9229 1.8736 0 0 1-0.8241 1.0706 1.2927 1.2596 0 0 1-1.6159-0.51958 3.7004 3.6056 0 0 1-0.5494-1.5745l-0.6787-4.0622a1.1473 1.1179 0 0 0-0.2424-0.58256 1.115 1.0864 0 0 0-0.7271-0.20469h-5.2194c-0.307-0.89746 0.6302-1.7319 1.5189-2.1256 0.8888-0.39363 1.9391-0.66129 2.3916-1.4958 0.9049-1.7319-1.4382-4.1252-0.4363-5.6052 1.2442-1.7634 3.1348-0.11021 4.6699 0.6298z" style="fill:#4e73df;stroke-width:1.5951"/><path d="m1259.7 157.65a1.2281 1.1966 0 0 0 0.5817 0.1732c0.3717 0 0.6302-0.37788 0.7918-0.70853 0.8403-1.7792 0.3555-4.0779 1.6159-5.5894a19.779 19.272 0 0 1 3.1348 5.1328l4.9447-1.48a7.3362 7.1482 0 0 1-0.9373 5.5107 7.4331 7.2427 0 0 1 2.3269 1.5745 2.537 2.472 0 0 1 0.5979 2.5349 11.99 11.683 0 0 1-3.4742 0.34639 23.527 22.925 0 0 1-0.3716 6.298 1.2281 1.1966 0 0 1-0.4363 0.81874c-0.3555 0.22042-0.8241 0-1.1958-0.20469a11.683 11.384 0 0 1-4.072-4.1882l-1.826 4.2669a1.9876 1.9366 0 0 1-0.8241 1.0706 1.2927 1.2596 0 0 1-1.5351-0.51958 3.7004 3.6056 0 0 1-0.5494-1.5745l-0.6787-4.0622a1.1473 1.1179 0 0 0-0.2424-0.58256 1.115 1.0864 0 0 0-0.7271-0.20468h-5.2194c-0.307-0.89746 0.6141-1.7477 1.519-2.1256s1.939-0.66128 2.3915-1.5745c0.9049-1.7162-1.4382-4.1094-0.4525-5.5894 1.212-1.7792 3.1026-0.063 4.6377 0.67703z" style="fill:#4e73df;stroke-width:1.5951"/><path d="m1108.1 223.76a0.51709 0.50384 0 0 0 0.307 0c0.1939 0 0.3393-0.18894 0.4201-0.36214 0.4363-0.94469 0.1778-2.1728 0.8726-2.9758a10.665 10.392 0 0 1 1.6159 2.7239l2.6339-0.78725a3.9266 3.826 0 0 1-0.5009 2.9286 3.862 3.763 0 0 1 1.2281 0.81873 1.3574 1.3226 0 0 1 0.3232 1.3541 7.0776 6.8963 0 0 1-1.8422 0.18894 11.731 11.431 0 0 1-0.21 3.3537 0.64636 0.6298 0 0 1-0.2262 0.42511c-0.1778 0.12596-0.4363 0-0.6302-0.11022a5.9788 5.8256 0 0 1-2.1653-2.22l-0.9696 2.2673a1.0019 0.97619 0 0 1-0.4363 0.56682 0.72715 0.70852 0 0 1-0.8241-0.26767 2.4077 2.346 0 0 1-0.2908-0.86597l-0.3555-2.157a0.58172 0.56682 0 0 0-0.1293-0.3149 0.61404 0.59831 0 0 0-0.3878-0.11022h-2.7632c-0.1616-0.48809 0.3232-0.92895 0.7918-1.1336 0.4686-0.20469 1.0503-0.34639 1.2765-0.80299 0.4848-0.91321-0.7594-2.1886-0.2262-2.9758 0.5333-0.78725 1.6644 0.063 2.4885 0.4566z" style="fill:#4e73df;opacity:.12;stroke-width:1.5951"/><path d="m1176 262a0.51709 0.50384 0 0 0 0.307 0c0.1939 0 0.3393-0.18894 0.4201-0.36213 0.4363-0.9447 0.1778-2.1728 0.8726-2.9758a10.665 10.392 0 0 1 1.6159 2.7239l2.6339-0.78725a3.9266 3.826 0 0 1-0.5009 2.9286 3.862 3.763 0 0 1 1.2281 0.81874 1.3574 1.3226 0 0 1 0.3232 1.3541 6.4636 6.298 0 0 1-1.8422 0.17319 11.812 11.51 0 0 1-0.21 3.3694 0.69484 0.67703 0 0 1-0.2101 0.42511 0.64636 0.6298 0 0 1-0.6464-0.11021 5.9788 5.8256 0 0 1-2.1653-2.22l-0.9695 2.2673a1.0665 1.0392 0 0 1-0.4363 0.56682 0.74331 0.72427 0 0 1-0.8241-0.26766 2.1168 2.0626 0 0 1-0.2747-0.86598l-0.3717-2.157a0.58172 0.56682 0 0 0-0.1292-0.3149 0.53325 0.51958 0 0 0-0.3878-0.11021h-2.7632c-0.1616-0.4881 0.3231-0.92896 0.7918-1.1336 0.4686-0.20468 1.0503-0.36213 1.2765-0.80299 0.4848-0.91321-0.7595-2.1886-0.2262-2.9758 0.5332-0.78725 1.6805 0 2.4885 0.4566z" style="fill:#4e73df;opacity:.12;stroke-width:1.5951"/><path d="m1241.6 128.3a0.75947 0.74001 0 0 0 0.3071 0.0945 0.53325 0.51958 0 0 0 0.4201-0.37788c0.4524-0.94469 0.1939-2.1728 0.8887-2.96a10.423 10.155 0 0 1 1.6159 2.7239l2.6178-0.78725a3.8782 3.7788 0 0 1-0.4848 2.9286 3.7812 3.6843 0 0 1 1.2281 0.81874 1.3574 1.3226 0 0 1 0.3232 1.3541 6.4636 6.298 0 0 1-1.8583 0.1732 12.297 11.982 0 0 1-0.1939 3.3537 0.64636 0.6298 0 0 1-0.2262 0.44085c-0.1939 0.11022-0.4363 0-0.6302-0.11021a6.0273 5.8729 0 0 1-2.1653-2.2358l-0.9696 2.2673a1.0503 1.0234 0 0 1-0.4363 0.58256 0.71099 0.69278 0 0 1-0.8241-0.28341 2.0683 2.0154 0 0 1-0.2908-0.86597l-0.3555-2.157a0.43629 0.42511 0 0 0-0.5171-0.40937h-2.7794c-0.1454-0.47235 0.3394-0.92895 0.808-1.1179s1.0342-0.36214 1.2765-0.80299c0.4848-0.91321-0.7594-2.1886-0.2423-2.9758 0.517-0.78725 1.7613-0.0472 2.4884 0.34638z" style="fill:#4e73df;opacity:.3;stroke-width:1.5951"/><path d="m1206.7 203.6a0.67868 0.66129 0 0 0 0.307 0.0945c0.1939 0 0.3393-0.20469 0.4201-0.37788 0.4525-0.9447 0.1939-2.1728 0.8726-2.96a10.067 9.8091 0 0 1 1.6159 2.7239l2.6178-0.78725a3.8782 3.7788 0 0 1-0.501 2.9286 3.8458 3.7473 0 0 1 1.2443 0.81873 1.3735 1.3383 0 0 1 0.3232 1.3383 6.5605 6.3924 0 0 1-1.8583 0.18894 12.297 11.982 0 0 1-0.1939 3.3537 0.61404 0.59831 0 0 1-0.2263 0.42511c-0.1939 0.12596-0.4524 0-0.6463-0.0945a6.1081 5.9516 0 0 1-2.1492-2.2358l-0.9857 2.2673a0.95338 0.92895 0 0 1-0.4362 0.56682 0.66252 0.64554 0 0 1-0.808-0.26766 1.9229 1.8736 0 0 1-0.2909-0.86597l-0.3716-2.1571a0.51709 0.50384 0 0 0-0.1131-0.29915 0.54941 0.53533 0 0 0-0.3878-0.11022h-2.7794c-0.1616-0.47234 0.3394-0.92895 0.808-1.1336 0.4686-0.20469 1.0341-0.34639 1.2765-0.80299 0.4686-0.91321-0.7756-2.1728-0.2424-2.96 0.5333-0.78725 1.6967-0.0472 2.5047 0.34639z" style="fill:#4e73df;opacity:.3;stroke-width:1.5951"/><path d="m1232.1 174.26a0.51709 0.50384 0 0 0 0.307 0c0.1939 0 0.3393-0.18894 0.4201-0.36213 0.4525-0.9447 0.1939-2.1728 0.8726-2.9758a10.309 10.045 0 0 1 1.6159 2.7239l2.6178-0.78725a3.862 3.763 0 0 1-0.501 2.9286 4.1205 4.015 0 0 1 1.2443 0.81874 1.3897 1.3541 0 0 1 0.3231 1.3541 6.4636 6.298 0 0 1-1.8582 0.17319 12.378 12.061 0 0 1-0.1939 3.3694 0.48477 0.47235 0 0 1-0.8726 0.3149 6.0596 5.9043 0 0 1-2.1492-2.22l-0.9857 2.2673a1.0665 1.0392 0 0 1-0.4363 0.56682 0.69484 0.67703 0 0 1-0.8079-0.28341 2.0037 1.9524 0 0 1-0.2909-0.85023l-0.3716-2.1728a0.40397 0.39362 0 0 0-0.501-0.40936h-2.7793c-0.1616-0.47235 0.3393-0.91321 0.808-1.1179 0.4686-0.20469 1.0341-0.36214 1.2765-0.803 0.4848-0.9132-0.7756-2.1885-0.2424-2.9758 0.5333-0.78724 1.6967 0.0157 2.5047 0.44086z" style="fill:#4e73df;opacity:.3;stroke-width:1.5951"/><path d="m1123.1 181.17a0.54941 0.53533 0 0 0 0.307 0.0787c0.21 0 0.3393-0.18894 0.4201-0.36213 0.4525-0.9447 0.1939-2.1728 0.8888-2.9758a10.665 10.392 0 0 1 1.6158 2.7239l2.6178-0.78725a3.8458 3.7473 0 0 1-0.4848 2.9286 4.0559 3.952 0 0 1 1.2281 0.81873 1.3574 1.3226 0 0 1 0.3232 1.3541 6.4636 6.298 0 0 1-1.8583 0.17319 12.378 12.061 0 0 1-0.1939 3.3694 0.64636 0.6298 0 0 1-0.2262 0.42511 0.61404 0.59831 0 0 1-0.6302-0.11021 6.1081 5.9516 0 0 1-2.1653-2.22l-0.9696 2.2673a1.0665 1.0392 0 0 1-0.4363 0.56682 0.71099 0.69278 0 0 1-0.8241-0.28341 2.0037 1.9524 0 0 1-0.2908-0.85023l-0.3555-2.1728a0.58172 0.56682 0 0 0-0.1293-0.29915 0.53325 0.51958 0 0 0-0.3878-0.11022h-2.7794c-0.1454-0.47234 0.3394-0.9132 0.808-1.1179 0.4686-0.20468 1.0342-0.36213 1.2766-0.80299 0.4847-0.9132-0.7595-2.1885-0.2424-2.9758 0.5171-0.78724 1.6805-0.0315 2.4885 0.36214z" style="fill:#4e73df;opacity:.3;stroke-width:1.5951"/><path d="m1176 175.41a0.51709 0.50384 0 0 0 0.307 0c0.1939 0 0.3393-0.18894 0.4201-0.36213 0.4363-0.9447 0.1778-2.1728 0.8726-2.9758a10.665 10.392 0 0 1 1.6159 2.7239l2.6339-0.78725a3.9266 3.826 0 0 1-0.5009 2.9286 3.862 3.763 0 0 1 1.2281 0.81874 1.3574 1.3226 0 0 1 0.3232 1.3541 7.0776 6.8963 0 0 1-1.8422 0.18894 11.731 11.431 0 0 1-0.21 3.3537 0.69484 0.67703 0 0 1-0.2101 0.42511c-0.1939 0.12596-0.4525 0-0.6464-0.11021a5.9788 5.8256 0 0 1-2.1653-2.22l-0.9695 2.2673a1.0019 0.97619 0 0 1-0.4363 0.56682 0.74331 0.72427 0 0 1-0.8241-0.26766 2.1168 2.0626 0 0 1-0.2747-0.86598l-0.3717-2.157a0.58172 0.56682 0 0 0-0.1292-0.3149 0.61404 0.59831 0 0 0-0.3878-0.11021h-2.7632c-0.1616-0.4881 0.3231-0.92895 0.7918-1.1336 0.4686-0.20468 1.0503-0.34639 1.2765-0.80299 0.4848-0.91321-0.7595-2.1886-0.2262-2.9758 0.5332-0.78725 1.6805 0.0472 2.4885 0.4566z" style="fill:#4e73df;opacity:.12;stroke-width:1.5951"/><path d="m1192.5 182.41a0.6302 0.61405 0 0 0 0.3232 0.0945c0.1939 0 0.3231-0.18893 0.4201-0.36213 0.4363-0.94469 0.1777-2.1728 0.8726-2.9758a10.665 10.392 0 0 1 1.6159 2.7239l2.6339-0.78724a3.9266 3.826 0 0 1-0.5009 2.9286 4.0559 3.952 0 0 1 1.228 0.81874 1.3574 1.3226 0 0 1 0.3232 1.3541 6.4636 6.298 0 0 1-1.8421 0.1732 12.426 12.108 0 0 1-0.2101 3.3694 0.64636 0.6298 0 0 1-0.2262 0.42511 0.61404 0.59831 0 0 1-0.6302-0.11021 6.1081 5.9516 0 0 1-2.1653-2.22l-0.9695 2.2673a1.0665 1.0392 0 0 1-0.4363 0.56682 0.71099 0.69278 0 0 1-0.8241-0.28341 2.2299 2.1728 0 0 1-0.2909-0.85022l-0.3555-2.1728a0.43629 0.42511 0 0 0-0.5171-0.40937h-2.7793c-0.1455-0.47235 0.3393-0.91321 0.8079-1.1179s1.0342-0.36213 1.2766-0.80299c0.4848-0.91321-0.7595-2.1886-0.2262-2.9758 0.5332-0.78725 1.6643-0.0315 2.4723 0.34638z" style="fill:#4e73df;opacity:.18;stroke-width:1.5951"/><path d="m1208 139.85a0.67868 0.66129 0 0 0 0.307 0.0945c0.1939 0 0.3393-0.20468 0.4201-0.37788 0.4363-0.94469 0.1778-2.1728 0.8726-2.96a10.164 9.9036 0 0 1 1.6159 2.7239l2.6339-0.80299a3.9266 3.826 0 0 1-0.5009 2.9286 4.1367 4.0307 0 0 1 1.2281 0.81874 1.3735 1.3383 0 0 1 0.3232 1.3541 7.0776 6.8963 0 0 1-1.8422 0.18894 11.731 11.431 0 0 1-0.21 3.3537 0.66252 0.64554 0 0 1-0.2101 0.42512c-0.1939 0.12596-0.4525 0-0.6464-0.0945a6.1404 5.9831 0 0 1-2.1653-2.2358l-0.9695 2.2673a1.0019 0.97619 0 0 1-0.4363 0.56681 0.69484 0.67703 0 0 1-0.8241-0.26766 2.1168 2.0626 0 0 1-0.2747-0.86597l-0.3717-2.1571a0.58172 0.56682 0 0 0-0.1292-0.31489 0.51709 0.50384 0 0 0-0.3878-0.0945h-2.7632c-0.1616-0.4881 0.3231-0.92895 0.7918-1.1336 0.4686-0.20468 1.0503-0.34639 1.2765-0.80299 0.4848-0.91321-0.7595-2.1728-0.2262-2.96 0.5332-0.78724 1.6805-0.0472 2.4885 0.34639z" style="fill:#4e73df;opacity:.12;stroke-width:1.5951"/><path d="m1177.6 195.4a0.54941 0.53533 0 0 0 0.307 0.0787c0.21 0 0.3393-0.18894 0.4201-0.36214 0.4525-0.94469 0.1939-2.1728 0.8887-2.9758a10.503 10.234 0 0 1 1.6159 2.7396l2.6178-0.80299a3.9105 3.8103 0 0 1-0.4848 2.9286 4.2498 4.1409 0 0 1 1.2281 0.81874 1.3574 1.3226 0 0 1 0.3232 1.3541 7.1907 7.0065 0 0 1-1.8583 0.18894 12.297 11.982 0 0 1-0.1939 3.3537 0.64636 0.6298 0 0 1-0.2262 0.42512c-0.1939 0.12596-0.4363 0-0.6302-0.0945a6.1404 5.9831 0 0 1-2.1653-2.2358l-0.9696 2.2673a1.0019 0.97619 0 0 1-0.4363 0.56681 0.72715 0.70852 0 0 1-0.8241-0.26766 2.133 2.0783 0 0 1-0.2908-0.86597l-0.3555-2.1571a0.71099 0.69278 0 0 0-0.1293-0.31489 0.61404 0.59831 0 0 0-0.3878-0.11022h-2.7794c-0.1615-0.48809 0.3394-0.92895 0.808-1.1336 0.4686-0.20469 1.0342-0.34639 1.2766-0.803 0.4847-0.9132-0.7757-2.1885-0.2424-2.9758 0.5332-0.78724 1.6805-0.0157 2.4885 0.37788z" style="fill:#4e73df;opacity:.18;stroke-width:1.5951"/></g><g transform="translate(-858.6 3.2709)"><path d="m1550.8 164.84c5.898-7.8725 18.082 0.64555 12.572 8.7384-1.4381 2.1098-3.0055 4.1724-4.4922 6.1248-18.163 23.869-27.567 52.871-35.663 81.527-1.9876 7.0222-3.9105 14.533-1.6159 21.492-3.2318-18.626-1.1311-37.788 3.765-56.115 4.8962-18.327 12.507-35.741 20.376-52.997a48.299 47.062 0 0 1 5.0578-8.7699z" style="fill:#f6c23e;opacity:.5;stroke-width:1.5951"/><path d="m1668.5 215.05c12.248-0.36213 13.8 17.729 1.6159 18.673-3.2318 0.25192-6.4636 0.33064-9.5015 0.40937-37.489 0.99193-72.942 14.17-107 28.483-8.3542 3.4954-17.128 7.4316-22.025 14.91 15.351-17.319 35.55-30.073 57.09-39.362s44.421-15.524 67.334-21.24a58.883 57.375 0 0 1 12.491-1.8736z" style="fill:#f6c23e;stroke-width:1.5951"/><path d="m1665.2 259.53c7.724 0.28341 5.9788 11.021-1.8098 11.021-2.036 0-4.0559 0-5.995-0.15745-23.657-0.92895-47.879 5.432-71.374 12.423-5.7688 1.7162-11.845 3.6686-16.046 7.8725 12.232-9.5887 26.824-16.249 41.706-20.862s30.169-7.3056 45.391-9.7304a41.367 40.307 0 0 1 8.1279-0.56681z" style="fill:#f6c23e;opacity:.2;stroke-width:1.5951"/><path d="m1506.9 458.58c-2.1977 7.2269-12.41 2.9286-10.552-4.4401 0.501-1.9209 1.0827-3.826 1.6159-5.6367 6.803-22.043 6.4636-46.526 5.3648-70.443-0.2747-5.8571-0.711-12.092-3.8458-17.099 6.4636 13.934 9.4853 29.349 10.39 44.542 0.9049 15.194-0.2262 30.293-1.6159 45.267a42.53 41.441 0 0 1-1.3573 7.8095z" style="fill:#f6c23e;opacity:.5;stroke-width:1.5951"/><path d="m1651.1 154.8c4.6538-0.78725 5.0093 5.8256 0.3555 6.8333-1.2119 0.25192-2.44 0.4566-3.6035 0.64554-14.252 2.3775-27.874 9.1636-40.995 16.249-3.2318 1.7477-6.609 3.6686-8.5642 6.6916a78.387 76.379 0 0 1 22.186-17.682 193.05 188.1 0 0 1 25.854-11.431 25.854 25.192 0 0 1 4.7669-1.3068z" style="fill:#f6c23e;opacity:.2;stroke-width:1.5951"/><path d="m1722.9 329.88c11.812 5.9201 1.826 22.185-10.309 16.784-3.2318-1.417-6.2697-2.9915-9.2267-4.4873-36.083-18.233-77.999-24.956-119.24-30.136-10.116-1.2596-20.91-2.3775-30.266 1.5745 25.515-7.0065 52.678-7.5891 78.937-4.6133 26.258 2.9758 51.806 9.447 77.094 16.154a69.484 67.703 0 0 1 13.008 4.7235z" style="fill:#f6c23e;stroke-width:1.5951"/><path d="m1689.2 393.16c8.4835 7.715-4.7669 16.831-13.67 9.447-2.3269-1.9366-4.5407-3.9835-6.6575-5.9201-25.854-23.617-60.047-40.496-94.078-56.005-8.3542-3.8103-42.724-7.6993-51.903-7.4946 23.964 2.0941 72.942 9.447 94.708 19.036 21.766 9.5887 41.949 21.571 61.808 33.741a66.72 65.011 0 0 1 9.7923 7.1954z" style="fill:#f6c23e;opacity:.5;stroke-width:1.5951"/><path d="m1628.7 494.18c2.4723 11.021-13.735 11.195-16.741 0.1732-0.7918-2.8971-1.422-5.7941-2.036-8.5652-7.4655-33.789-25.774-66.585-44.712-98.185-4.6538-7.7622-30.702-30.01-38.345-34.922 18.502 15.005 54.536 48.132 66.817 68.128s21.879 40.937 31.122 61.988a66.979 65.263 0 0 1 3.8943 11.384z" style="fill:#f6c23e;stroke-width:1.5951"/><path d="m1506.8 106.38c5.7849-11.494 22.299-2.0468 17.064 9.7304-1.3735 3.149-2.9248 6.109-4.3791 8.9746-17.775 35.08-23.931 75.654-28.504 115.55-1.115 9.7776-2.0845 20.216 2.0037 29.207-7.4654-24.546-8.4511-50.777-5.8657-76.174s8.6612-50.148 15.092-74.662a66.866 65.153 0 0 1 4.5891-12.627z" style="fill:#f6c23e;stroke-width:1.5951"/><path d="m1598.9 125.92a1.8421 1.7949 0 0 1-0.9857 0.28341c-0.6464 0-1.0989-0.6298-1.3574-1.1966-1.4543-3.0545-0.614-7.0222-2.844-9.5887a33.934 33.064 0 0 0-5.3971 8.8014l-8.4834-2.5507a12.604 12.281 0 0 0 1.6159 9.447 13.202 12.864 0 0 0-4.0075 2.6451 4.4437 4.3299 0 0 0-1.0341 4.3771 21.362 20.815 0 0 0 5.9949 0.58257 39.735 38.717 0 0 0 0.6302 10.864 2.1007 2.0468 0 0 0 0.7272 1.3698c0.6302 0.39362 1.4381 0 2.0683-0.33065a19.552 19.051 0 0 0 6.9807-7.2112l3.151 7.3371a3.3772 3.2907 0 0 0 1.4059 1.8422 2.2784 2.22 0 0 0 2.65-0.88172 6.4636 6.298 0 0 0 0.9372-2.7868l1.1796-6.9908a1.7129 1.669 0 0 1 0.3879-0.99193 1.8744 1.8264 0 0 1 1.2604-0.34639q4.4922-0.12596 8.9682-0.0945c0.5171-1.5745-1.0665-2.9915-2.6016-3.6371-1.5351-0.64555-3.3449-1.1494-4.1205-2.5979-1.6159-2.9443 2.4884-7.0537 0.7594-9.6044-2.0037-2.9443-5.2678 0-7.8855 1.2596z" style="fill:#f6c23e;stroke-width:1.5951"/><path d="m1435.2 164.84c-5.898-7.8725-18.082 0.64555-12.572 8.7384 1.4382 2.1098 3.0217 4.1724 4.5084 6.1248 18.146 23.869 27.47 52.871 35.663 81.527 1.9876 7.0222 3.9105 14.533 1.6159 21.492 3.2318-18.626 1.1312-37.788-3.765-56.115s-12.507-35.741-20.376-52.997a48.299 47.062 0 0 0-5.0739-8.7699z" style="fill:#f6c23e;opacity:.5;stroke-width:1.5951"/><path d="m1317.4 215.05c-12.248-0.36213-13.8 17.729-1.6159 18.673 3.2318 0.25192 6.4636 0.33064 9.5014 0.40937 37.489 0.99193 72.942 14.17 107 28.483 8.3703 3.4954 17.145 7.4316 22.025 14.91-15.351-17.319-35.55-30.073-57.09-39.362s-44.405-15.462-67.318-21.193a59.19 57.674 0 0 0-12.507-1.9209z" style="fill:#f6c23e;stroke-width:1.5951"/><path d="m1320.7 259.53c-7.7401 0.28341-5.995 11.021 1.7937 11.021 2.036 0 4.072 0 6.0111-0.15745 23.641-0.92895 47.863 5.432 71.358 12.423 5.7688 1.7162 11.861 3.6686 16.046 7.8725-12.232-9.5887-26.808-16.249-41.706-20.862-14.899-4.6133-30.169-7.3056-45.391-9.7304a41.302 40.244 0 0 0-8.1118-0.56681z" style="fill:#f6c23e;opacity:.5;stroke-width:1.5951"/><path d="m1334.9 154.8c-4.6538-0.78725-5.0093 5.8256-0.3716 6.8333 1.2119 0.25192 2.44 0.4566 3.6034 0.64554 14.252 2.3775 27.89 9.1636 41.012 16.249 3.2318 1.7477 6.5928 3.6686 8.5481 6.6916a78.387 76.379 0 0 0-22.186-17.682 193.05 188.1 0 0 0-25.854-11.431 25.644 24.987 0 0 0-4.7508-1.3068z" style="fill:#f6c23e;opacity:.2;stroke-width:1.5951"/><path d="m1456 472.28c1.0503 4.4873 7.4493 2.2515 6.609-2.2988-0.2262-1.1966-0.5171-2.3775-0.7756-3.4954-3.2318-13.73-2.0684-28.609-0.4202-43.125 0.404-3.5741 0.9211-7.3529 3.0379-10.281a78.5 76.489 0 0 0-8.0795 26.766 195.91 190.89 0 0 0-0.8564 27.632 25.467 24.814 0 0 0 0.4848 4.8022z" style="fill:#f6c23e;opacity:.2;stroke-width:1.5951"/><path d="m1337.8 442.42c-3.6358 5.9988 5.3001 5.6052 9.2106-0.40937 1.0342-1.5745 1.9714-3.149 2.8924-4.7235 11.069-18.343 27.907-36.497 44.874-54.037 4.169-4.2984 8.6774-8.8329 13.929-11.698a219.1 213.49 0 0 0-36.487 30.388c-10.891 11.021-20.506 22.657-29.926 34.198a57.995 56.509 0 0 0-4.4922 6.2822z" style="fill:#f6c23e;opacity:.5;stroke-width:1.5951"/><path d="m1661.3 442.42c3.6358 5.9988-5.3001 5.6052-9.2106-0.40937-1.0341-1.5745-1.9875-3.149-2.8924-4.7235-11.069-18.343-27.923-36.497-44.874-54.037-4.169-4.2984-8.6774-8.8329-13.929-11.698a219.1 213.49 0 0 1 36.487 30.388c10.891 11.021 20.506 22.657 29.926 34.198a57.995 56.509 0 0 1 4.4921 6.2822z" style="fill:#f6c23e;opacity:.2;stroke-width:1.5951"/><path d="m1543 472.28c-1.0503 4.4873-7.4493 2.2515-6.609-2.2988 0.2262-1.1966 0.5171-2.3775 0.7756-3.4954 3.2318-13.73 2.0684-28.609 0.4202-43.125-0.404-3.5741-0.9211-7.3529-3.0218-10.281a78.807 76.788 0 0 1 8.0795 26.766 193.63 188.67 0 0 1 0.8565 27.632 25.467 24.814 0 0 1-0.501 4.8022z" style="fill:#f6c23e;opacity:.2;stroke-width:1.5951"/><path d="m1372.1 199.87c-4.6537-0.78725-5.0092 5.8256-0.3555 6.8333 1.212 0.25192 2.4401 0.4566 3.6035 0.64554 14.252 2.3775 27.874 9.1636 40.995 16.249 3.2318 1.7477 6.609 3.6686 8.5643 6.6916a78.387 76.379 0 0 0-22.186-17.619 195.12 190.12 0 0 0-25.854-11.431 25.854 25.192 0 0 0-4.7669-1.3698z" style="fill:#f6c23e;opacity:.2;stroke-width:1.5951"/><path d="m1415.6 111.37c-4.0074-2.4247-6.8676 3.5741-2.9571 6.1878 1.0342 0.69278 2.0845 1.3226 3.1025 1.9209 12.297 7.4001 22.348 18.658 31.801 30.01 2.3107 2.7868 4.7184 5.7941 5.3648 9.321a78.484 76.473 0 0 0-13.816-24.342 196.51 191.47 0 0 0-19.585-20.028 25.854 25.192 0 0 0-3.9105-3.0703z" style="fill:#f6c23e;opacity:.2;stroke-width:1.5951"/><path d="m1263 329.88c-11.812 5.9201-1.826 22.185 10.309 16.784 3.2318-1.417 6.2697-2.9915 9.2268-4.4873 36.083-18.233 78.016-24.956 119.24-30.136 10.132-1.2596 20.91-2.3775 30.266 1.5745-25.515-7.0065-52.662-7.5891-78.937-4.6133-26.274 2.9758-51.709 9.447-77.094 16.154a69.484 67.703 0 0 0-13.008 4.7235z" style="fill:#f6c23e;stroke-width:1.5951"/><path d="m1296.7 393.16c-8.4834 7.715 4.8477 16.831 13.67 9.447 2.3269-1.9366 4.5407-3.9835 6.6575-5.9201 25.854-23.617 60.047-40.496 94.078-56.005 8.3542-3.8103 42.74-7.6993 51.919-7.4946-23.98 2.0941-72.958 9.447-94.724 19.036-21.766 9.5887-41.916 21.618-61.76 33.773a66.026 64.334 0 0 0-9.8409 7.1639z" style="fill:#f6c23e;opacity:.5;stroke-width:1.5951"/><path d="m1396.7 506.77c-1.0342 11.258 15.076 9.447 16.628-1.8736 0.4201-2.96 0.6625-5.9201 0.921-8.7384 3.0702-34.434 17.015-69.278 31.752-102.88 3.6035-8.2503 26.565-33.505 33.546-39.362-16.434 17.13-47.911 54.399-57.542 75.717-9.6307 21.319-16.434 43.362-22.897 65.31a67.658 65.924 0 0 0-2.4077 11.824z" style="fill:#f6c23e;stroke-width:1.5951"/><path d="m1387 125.92a1.8583 1.8107 0 0 0 1.0019 0.28341c0.6302 0 1.0826-0.6298 1.3573-1.1966 1.4382-3.0545 0.6141-7.0222 2.8278-9.5887a33.498 32.639 0 0 1 5.3971 8.8014l8.4835-2.5507a12.669 12.344 0 0 1-1.6159 9.447 13.331 12.99 0 0 1 3.9913 2.6451 4.4437 4.3299 0 0 1 1.0341 4.3771 21.362 20.815 0 0 1-5.9949 0.58257 39.137 38.134 0 0 1-0.6302 10.864 2.036 1.9839 0 0 1-0.7272 1.3698c-0.6302 0.39362-1.4381 0-2.0683-0.33065a19.682 19.177 0 0 1-6.9807-7.2112l-3.2318 7.3371a3.2318 3.149 0 0 1-1.4059 1.8422 2.2784 2.22 0 0 1-2.65-0.88172 6.9484 6.7703 0 0 1-0.9372-2.7868l-1.1796-6.9908a1.7129 1.669 0 0 0-0.3879-0.99193 1.826 1.7792 0 0 0-1.2442-0.34639c-3.0056-0.0787-5.995-0.11021-8.9844-0.0945-0.5171-1.5745 1.0827-2.9915 2.6016-3.6371 1.5189-0.64555 3.3611-1.1494 4.1205-2.5979 1.6159-2.9443-2.4723-7.0537-0.7594-9.6044 2.1814-2.9443 5.4455 0 7.9825 1.2596z" style="fill:#f6c23e;stroke-width:1.5951"/><path d="m1361.5 466.26a2.2946 2.2358 0 0 0 1.0018 0.28341c0.6464 0 1.0988-0.62979 1.3574-1.1966 1.4543-3.0545 0.614-7.0222 2.844-9.6044a34.709 33.82 0 0 1 5.3971 8.8172l8.4511-2.5979a12.636 12.313 0 0 1-1.6159 9.447 13.202 12.864 0 0 1 4.0074 2.6451 4.4437 4.3299 0 0 1 1.0342 4.3771 21.976 21.413 0 0 1-5.995 0.58257 39.589 38.575 0 0 1-0.6302 10.848 2.133 2.0783 0 0 1-0.7271 1.3856 2.0522 1.9996 0 0 1-2.0684-0.33065 19.682 19.177 0 0 1-6.9806-7.2112l-3.2318 7.3371a3.4257 3.3379 0 0 1-1.4059 1.8422 2.2946 2.2358 0 0 1-2.65-0.89746 6.4636 6.298 0 0 1-0.9373-2.7868l-1.1796-6.975a1.3412 1.3068 0 0 0-1.6159-1.3383c-2.9894-0.0945-5.9788-0.11021-8.9682-0.0945-0.5171-1.5745 1.0665-2.9915 2.6016-3.6371 1.5351-0.64555 3.3449-1.1494 4.1205-2.5979 1.6159-2.96-2.4884-7.0695-0.7594-9.6044 2.0845-2.9128 5.3486 0.0315 7.9502 1.3068z" style="fill:#f6c23e;opacity:.2;stroke-width:1.5951"/><path d="m1289.6 238.12a2.0199 1.9681 0 0 0 0.9857 0.29916 1.826 1.7792 0 0 0 1.3574-1.1966c1.4543-3.0703 0.614-7.0222 2.844-9.6044a33.595 32.734 0 0 1 5.3971 8.8172l8.4834-2.5664a12.701 12.376 0 0 1-1.6159 9.447 13.04 12.706 0 0 1 3.9913 2.6452 4.4276 4.3141 0 0 1 1.0342 4.3613 21.362 20.815 0 0 1-5.995 0.58257 39.105 38.103 0 0 1-0.6302 10.864 2.133 2.0783 0 0 1-0.7272 1.3856 2.0683 2.0154 0 0 1-2.0683-0.34639 19.762 19.256 0 0 1-6.9807-7.1954l-3.2318 7.3371a3.3287 3.2435 0 0 1-1.4058 1.8264 2.2623 2.2043 0 0 1-2.6501-0.88172 6.7221 6.5499 0 0 1-0.9372-2.7868l-1.1796-6.9908a1.7129 1.669 0 0 0-0.3878-0.97618 1.7936 1.7477 0 0 0-1.2604-0.36214c-2.9894 0-5.9789-0.11021-8.9683 0-0.5171-1.5745 1.0665-2.9915 2.6016-3.6528s3.3449-1.1336 4.1206-2.5822c1.6159-2.96-2.4885-7.0695-0.7595-9.6044 2.1007-3.023 5.3648-0.12596 7.9825 1.1809z" style="fill:#f6c23e;stroke-width:1.5951"/><path d="m1577 500.4a2.8763 2.8026 0 0 0 1.3897 0.39362c0.9049 0 1.5189-0.88171 1.8906-1.669 2.0198-4.2669 0.8564-9.7776 3.9589-13.367a46.958 45.755 0 0 1 7.5139 12.281l11.812-3.5741a17.516 17.068 0 0 1-2.2461 13.194 18.486 18.012 0 0 1 5.5749 3.6843 6.205 6.0461 0 0 1 1.4381 6.0933 30.169 29.396 0 0 1-8.338 0.81874 55.037 53.627 0 0 1-0.8887 15.131 2.1815 2.1256 0 0 1-3.8943 1.4485 27.341 26.64 0 0 1-9.6954-10.045l-4.3953 10.234a4.6376 4.5188 0 0 1-1.9552 2.5507 3.1187 3.0388 0 0 1-3.6843-1.2281 9.1945 8.9589 0 0 1-1.3088-3.889l-1.6159-9.7304a2.5046 2.4405 0 0 0-0.5333-1.3698 2.4562 2.3932 0 0 0-1.7451-0.48809c-4.1691-0.12596-8.3542-0.15745-12.523-0.12596-0.711-2.1571 1.5027-4.1724 3.6357-5.0856 2.133-0.91321 4.67-1.5745 5.7365-3.6056 2.1814-4.1252-3.4581-9.8406-1.0665-13.383 2.747-4.1409 7.3038-0.0315 10.94 1.7319z" style="fill:#f6c23e;stroke-width:1.5951"/><path d="m1696.5 244.94a2.8763 2.8026 0 0 0 1.3897 0.39362c0.8887 0 1.5189-0.86597 1.8906-1.669 2.0199-4.2511 0.8564-9.7776 3.9589-13.367a47.2 45.991 0 0 1 7.514 12.281l11.828-3.5741a17.581 17.13 0 0 1-2.2299 13.194 18.437 17.965 0 0 1 5.5748 3.7001 6.1889 6.0303 0 0 1 1.4382 6.0933 30.153 29.38 0 0 1-8.338 0.80299 55.635 54.21 0 0 1-0.8888 15.131 2.9086 2.8341 0 0 1-1.018 1.9209 2.844 2.7711 0 0 1-2.8763-0.45661 27.47 26.766 0 0 1-9.6954-10.045l-4.3952 10.218a4.7346 4.6133 0 0 1-1.9553 2.5664 3.2318 3.149 0 0 1-3.6842-1.2438 8.9844 8.7542 0 0 1-1.3089-3.8732l-1.6159-9.7461a2.4077 2.346 0 0 0-0.5494-1.3698 2.4885 2.4247 0 0 0-1.7451-0.48809q-6.2536-0.15745-12.507-0.12596c-0.711-2.1571 1.5028-4.1724 3.6358-5.0856 2.133-0.9132 4.6699-1.5745 5.7203-3.6056 2.1814-4.1094-3.4419-9.8406-1.0504-13.383 2.7147-4.1409 7.2554-0.0945 10.907 1.7319z" style="fill:#f6c23e;stroke-width:1.5951"/><path d="m1333.7 403.12a1.422 1.3856 0 0 0 0.7433 0.22043c0.4848 0 0.808-0.47235 1.0019-0.88172 1.0826-2.2673 0.4524-5.1958 2.1006-7.1167a24.739 24.105 0 0 1 3.9913 6.5342l6.2858-1.9051a9.4207 9.1793 0 0 1-1.1796 7.0222 9.2268 8.9904 0 0 1 2.941 1.9524 3.2318 3.149 0 0 1 0.7756 3.2435 16.353 15.934 0 0 1-4.4276 0.42511 29.377 28.624 0 0 1-0.4847 8.0299 1.4543 1.417 0 0 1-0.5333 1.0234c-0.4524 0.2834-1.0665 0-1.6159-0.23618a14.721 14.344 0 0 1-5.1547-5.3375l-2.343 5.432a2.4562 2.3932 0 0 1-1.0342 1.3541 1.6159 1.5745 0 0 1-1.9553-0.66129 4.8477 4.7235 0 0 1-0.6948-2.0626l-0.8726-5.1643a1.3735 1.3383 0 0 0-0.2908-0.74002 1.3412 1.3068 0 0 0-0.9373-0.25191c-2.2137 0-4.4275-0.0787-6.6413 0-0.3716-1.1494 0.808-2.22 1.9391-2.7081 1.1311-0.4881 2.4723-0.83448 3.0379-1.9051 1.1634-2.1885-1.826-5.2273-0.5656-7.1167 1.6321-2.2673 4.0559-0.1417 5.9142 0.85023z" style="fill:#f6c23e;opacity:.2;stroke-width:1.5951"/><path d="m1496.1 494.49a1.729 1.6847 0 0 0 0.7433 0.22043c0.4686 0 0.7918-0.47235 1.0018-0.89746 1.0665-2.2673 0.4525-5.1958 2.1007-7.101a25.063 24.42 0 0 1 3.9913 6.5184l6.2696-1.8894a9.3076 9.0691 0 0 1-1.1796 7.0065 9.6954 9.447 0 0 1 2.9571 1.9681 3.2318 3.149 0 0 1 0.7757 3.2277 16.482 16.06 0 0 1-4.4438 0.44085 28.811 28.073 0 0 1-0.4686 8.0299 1.6159 1.5745 0 0 1-0.5332 1.0234 1.5189 1.48 0 0 1-1.5351-0.25192 14.543 14.17 0 0 1-5.1709-5.3375l-2.3269 5.432a2.5208 2.4562 0 0 1-1.0503 1.3698 1.6967 1.6532 0 0 1-1.9552-0.66129 5.0416 4.9124 0 0 1-0.6949-2.0626l-0.8726-5.1801a1.2604 1.2281 0 0 0-0.2908-0.72426 1.2927 1.2596 0 0 0-0.9211-0.25192c-2.2138 0-4.4275-0.0945-6.6413-0.0787-0.3878-1.1336 0.7918-2.2043 1.9229-2.6924s2.4723-0.85023 3.054-1.9209c1.1473-2.1886-1.8421-5.2273-0.5655-7.101 1.4866-2.2043 3.8943-0.0158 5.8334 0.9132z" style="fill:#f6c23e;opacity:.2;stroke-width:1.5951"/><path d="m1653.3 174.71a1.6159 1.5745 0 0 0 0.7433 0.22043c0.4848 0 0.808-0.47234 1.0019-0.88171 1.0827-2.2673 0.4525-5.1958 2.1007-7.1167a24.739 24.105 0 0 1 3.9912 6.5341l6.2859-1.9051a9.356 9.1163 0 0 1-1.1958 7.0222 9.1137 8.8801 0 0 1 2.9571 1.9524 3.2318 3.149 0 0 1 0.7756 3.2277 15.755 15.351 0 0 1-4.4275 0.44086 29.377 28.624 0 0 1-0.4848 8.0299 1.5189 1.48 0 0 1-0.5332 1.0234c-0.4525 0.28341-1.0665 0-1.5351-0.23617a14.721 14.344 0 0 1-5.1548-5.3375l-2.343 5.432a2.4562 2.3932 0 0 1-1.0342 1.3541 1.6159 1.5745 0 0 1-1.9552-0.66129 4.8477 4.7235 0 0 1-0.6948-2.0626l-0.8726-5.1643a1.3735 1.3383 0 0 0-0.2909-0.74001 1.3412 1.3068 0 0 0-0.9372-0.25192c-2.2138 0-4.4276-0.0787-6.6414 0-0.3716-1.1494 0.808-2.22 1.9391-2.7081 1.1312-0.48809 2.4723-0.83448 3.0379-1.9051 1.1635-2.1886-1.826-5.2273-0.5656-7.1167 1.4867-2.2673 3.9105-0.0315 5.8334 0.85022z" style="fill:#f6c23e;opacity:.5;stroke-width:1.5951"/><path d="m1569.6 354.9a1.4705 1.4328 0 0 0 0.7271 0.22043c0.4848 0 0.808-0.47235 1.0181-0.88172 1.0665-2.2673 0.4524-5.1958 2.0845-7.1167a25.208 24.562 0 0 1 4.0074 6.5341l6.3505-1.9051a9.4207 9.1793 0 0 1-1.1796 7.0222 9.4853 9.2423 0 0 1 2.9571 1.9524 3.2318 3.149 0 0 1 0.7594 3.149 15.69 15.288 0 0 1-4.4275 0.44086 29.991 29.223 0 0 1-0.4686 8.0299 1.4705 1.4328 0 0 1-0.5494 1.0234c-0.4525 0.28341-1.0665 0-1.519-0.23617a14.624 14.249 0 0 1-5.1709-5.3375l-2.343 5.432a2.4562 2.3932 0 0 1-1.0342 1.3541 1.6159 1.5745 0 0 1-1.9552-0.66128 4.977 4.8494 0 0 1-0.6949-2.0626l-0.8725-5.1643a1.3735 1.3383 0 0 0-0.2909-0.74001 1.2927 1.2596 0 0 0-0.9211-0.25192h-6.6575c-0.3716-1.1494 0.808-2.22 1.9391-2.7081 1.1311-0.4881 2.4723-0.83449 3.0379-1.9051 1.1635-2.1886-1.826-5.2273-0.5656-7.1167 1.4867-2.22 3.9105 0.0158 5.7688 0.92895z" style="fill:#f6c23e;opacity:.5;stroke-width:1.5951"/><path d="m1630.4 284.68a1.4543 1.417 0 0 0 0.7271 0.20468c0.4848 0 0.808-0.4566 1.018-0.88171 1.0665-2.2673 0.4525-5.1958 2.1007-7.101a25.063 24.42 0 0 1 3.9913 6.5184l6.2696-1.8894a9.3722 9.1321 0 0 1-1.1796 7.0065 9.857 9.6044 0 0 1 2.9571 1.9524 3.2318 3.149 0 0 1 0.7595 3.2434 15.674 15.273 0 0 1-4.4276 0.42512 29.49 28.734 0 0 1-0.4686 8.0456 1.6159 1.5745 0 0 1-0.5494 1.0234c-0.4524 0.28341-1.0503 0-1.5189-0.25191a14.624 14.249 0 0 1-5.1709-5.3375l-2.343 5.432a2.4077 2.346 0 0 1-1.0342 1.3541 1.6159 1.5745 0 0 1-1.9553-0.64554 5.1224 4.9911 0 0 1-0.6948-2.0626l-0.8726-5.1801a1.325 1.2911 0 0 0-0.2908-0.72427 1.3089 1.2753 0 0 0-0.9211-0.26766c-2.2138 0-4.4276-0.0787-6.6413 0-0.3879-1.1494 0.7918-2.2043 1.9229-2.6924 1.1311-0.4881 2.4723-0.85023 3.0379-1.9209 1.1634-2.1886-1.826-5.2273-0.5494-7.1167 1.4704-2.2515 3.8943-0.0787 5.8334 0.86597z" style="fill:#f6c23e;opacity:.5;stroke-width:1.5951"/><path d="m1369.6 301.21a1.4705 1.4328 0 0 0 0.7272 0.22043c0.4847 0 0.8079-0.47234 1.0018-0.89746 1.0827-2.2515 0.4686-5.1958 2.1007-7.101a24.739 24.105 0 0 1 3.9912 6.5341l6.3182-1.9051a9.3722 9.1321 0 0 1-1.1796 7.0065 9.8085 9.5572 0 0 1 2.9571 1.9681 3.2318 3.149 0 0 1 0.7595 3.2277 16.304 15.887 0 0 1-4.4276 0.44086 29.991 29.223 0 0 1-0.4686 8.0299 1.5189 1.48 0 0 1-0.5494 1.0234c-0.4525 0.28341-1.0665 0-1.519-0.25192a14.398 14.029 0 0 1-5.1708-5.3375l-2.3431 5.432a2.5046 2.4405 0 0 1-1.0341 1.3698 1.6159 1.5745 0 0 1-1.9553-0.66129 5.0416 4.9124 0 0 1-0.6948-2.0626l-0.8726-5.1643a1.3735 1.3383 0 0 0-0.2909-0.74001 1.2927 1.2596 0 0 0-0.921-0.25192c-2.2138 0-4.4437-0.0787-6.6575 0-0.3717-1.1494 0.8079-2.22 1.9391-2.7081 1.1311-0.48809 2.4723-0.85022 3.0378-1.9209 1.1635-2.1885-1.8259-5.2273-0.5655-7.101 1.4543-2.2673 3.7973-0.0787 5.8172 0.85022z" style="fill:#f6c23e;opacity:.5;stroke-width:1.5951"/><path d="m1496.1 287.38a1.6159 1.5745 0 0 0 0.7433 0.22043c0.4686 0 0.7918-0.47235 1.0018-0.88172 1.0665-2.2673 0.4525-5.1958 2.1007-7.1167a25.16 24.515 0 0 1 3.9913 6.5342l6.2696-1.9051a9.356 9.1163 0 0 1-1.1796 7.0222 9.2914 9.0533 0 0 1 2.9571 1.9524 3.2318 3.149 0 0 1 0.7757 3.2277 15.868 15.462 0 0 1-4.4438 0.44086 28.779 28.042 0 0 1-0.4686 8.0299 1.5189 1.48 0 0 1-0.5332 1.0234 1.6159 1.5745 0 0 1-1.5351-0.23617 14.753 14.375 0 0 1-5.1709-5.3375l-2.3269 5.432a2.4885 2.4247 0 0 1-1.0503 1.3541 1.6159 1.5745 0 0 1-1.9552-0.66128 4.977 4.8494 0 0 1-0.6949-2.0626l-0.8726-5.1643a1.2604 1.2281 0 0 0-0.2908-0.74001 1.2927 1.2596 0 0 0-0.9211-0.25192c-2.2138 0-4.4275-0.0787-6.6413 0-0.3878-1.1494 0.7918-2.22 1.9229-2.7081 1.1311-0.48809 2.4723-0.83448 3.054-1.9051 1.1473-2.1886-1.8421-5.2273-0.5655-7.1167 1.4866-2.2673 3.8943-0.0787 5.8334 0.85023z" style="fill:#f6c23e;opacity:.2;stroke-width:1.5951"/><path d="m1535.8 304.21a1.6159 1.5745 0 0 0 0.7433 0.22042c0.4686 0 0.8079-0.47234 1.0018-0.88171 1.0665-2.2673 0.4525-5.2116 2.1007-7.1167a25.16 24.515 0 0 1 4.0397 6.5027l6.2859-1.9051a9.356 9.1163 0 0 1-1.1958 7.0222 9.2914 9.0533 0 0 1 2.9571 1.9524 3.2318 3.149 0 0 1 0.7756 3.2277 15.868 15.462 0 0 1-4.4437 0.44086 28.779 28.042 0 0 1-0.4686 8.0299 1.5189 1.48 0 0 1-0.5332 1.0234 1.6159 1.5745 0 0 1-1.5351-0.23617 14.753 14.375 0 0 1-5.1709-5.3375l-2.3269 5.432a2.5208 2.4562 0 0 1-1.0342 1.3541 1.6159 1.5745 0 0 1-1.9714-0.66129 4.7507 4.629 0 0 1-0.6786-2.0626l-0.8726-5.1643a1.5028 1.4643 0 0 0-0.2909-0.74001 1.3412 1.3068 0 0 0-0.9372-0.25192c-2.2138 0-4.4276-0.0787-6.6414 0-0.3878-1.1494 0.7918-2.22 1.923-2.7081 1.1311-0.48809 2.4884-0.83448 3.054-1.9051 1.1473-2.1886-1.8421-5.2273-0.5656-7.1167 1.4382-2.2358 3.8459-0.0472 5.785 0.88172z" style="fill:#f6c23e;opacity:.3;stroke-width:1.5951"/><path d="m1572.8 202.36a1.6159 1.5745 0 0 0 0.7433 0.22043c0.4848 0 0.808-0.47235 1.0019-0.89746 1.0665-2.2515 0.4524-5.1958 2.1006-7.101a24.901 24.263 0 0 1 3.9913 6.5184l6.2858-1.8894a9.3076 9.0691 0 0 1-1.1957 7.0065 9.4207 9.1793 0 0 1 2.9571 1.9681 3.2318 3.149 0 0 1 0.7756 3.2277 16.369 15.95 0 0 1-4.4276 0.44086 29.409 28.656 0 0 1-0.4847 8.0299 1.5189 1.48 0 0 1-0.5333 1.0234c-0.4524 0.2834-1.0665 0-1.5351-0.25192a14.543 14.17 0 0 1-5.1547-5.3375l-2.343 5.432a2.5046 2.4405 0 0 1-1.0342 1.3698 1.6159 1.5745 0 0 1-1.9553-0.66129 4.8477 4.7235 0 0 1-0.6948-2.0626l-0.8726-5.1643a1.3735 1.3383 0 0 0-0.2908-0.74002 1.3412 1.3068 0 0 0-0.9373-0.25191c-2.2137 0-4.4275-0.0945-6.6413-0.0787-0.3717-1.1336 0.7918-2.2043 1.9391-2.6924s2.4723-0.85023 3.0379-1.9209c1.1634-2.1886-1.826-5.2273-0.5656-7.101 1.5189-2.2043 3.9428-0.0157 5.8334 0.91321z" style="fill:#f6c23e;opacity:.2;stroke-width:1.5951"/><path d="m1500 335.28a1.4705 1.4328 0 0 0 0.7433 0.20468c0.4686 0 0.7918-0.4566 1.0019-0.88171 1.0664-2.2673 0.4524-5.1958 2.1006-7.101a25.063 24.42 0 0 1 3.9913 6.5184l6.2697-1.8894a9.3076 9.0691 0 0 1-1.1796 7.0065 9.857 9.6044 0 0 1 2.9571 1.9524 3.2318 3.149 0 0 1 0.7594 3.2434 15.674 15.273 0 0 1-4.4275 0.42512 29.49 28.734 0 0 1-0.4686 8.0457 1.6159 1.5745 0 0 1-0.5333 1.0234 1.5189 1.48 0 0 1-1.6159-0.25192 14.64 14.265 0 0 1-5.1709-5.3375l-2.3269 5.432a2.6016 2.5349 0 0 1-1.0503 1.3698 1.6967 1.6532 0 0 1-1.9552-0.66129 5.0416 4.9124 0 0 1-0.6949-2.0626l-0.8725-5.1801a1.3735 1.3383 0 0 0-0.2909-0.72426 1.3089 1.2753 0 0 0-0.9211-0.26767c-2.2137 0-4.4275-0.0787-6.6413 0-0.3878-1.1494 0.7918-2.2043 1.9229-2.6924s2.4723-0.85023 3.0379-1.9209c1.1634-2.1886-1.826-5.2273-0.5494-7.101 1.5513-2.2673 3.9751-0.0945 5.9142 0.85023z" style="fill:#f6c23e;opacity:.3;stroke-width:1.5951"/></g><path d="m295.05 220.35s105.12 52.198 123.97 44.948 25.374-71.772 25.374-71.772l-77.571-14.499z" style="opacity:.1"/><rect x="444.03" y="142.42" width="68.872" height="60.172" style="fill:#ff6584"/><rect x="444.03" y="142.42" width="68.872" height="60.172" style="opacity:.1"/><path d="m381.32 398.69s-2.8999 63.072 16.674 61.622 0-59.447 0-59.447z" style="fill:#fbbebe"/><path d="m461.79 151.48s4.3498 27.549-3.6248 31.174-13.049 6.5247-13.049 6.5247l18.124 12.324 33.348 2.1749 8.6996-6.5247 7.9746-7.2497s-13.049-2.8999-13.049-9.4246-0.725-26.099-0.725-26.099z" style="fill:#fbbebe"/><path d="m461.79 151.48s4.3498 27.549-3.6248 31.174-13.049 6.5247-13.049 6.5247l18.124 12.324 33.348 2.1749 8.6996-6.5247 7.9746-7.2497s-13.049-2.8999-13.049-9.4246-0.725-26.099-0.725-26.099z" style="opacity:.1"/><path d="m416.12 409.57s-21.024 67.422-21.024 116.72c0 0-34.798 78.296-33.348 116.72l-8.6996 52.922 12.324 4.3498 9.4246-7.9746s2.8999-28.274 12.324-42.048 31.174-79.021 31.174-79.021 57.997-121.79 55.822-139.19-57.997-22.474-57.997-22.474z" style="fill:#fbbebe"/><path d="m544.44 394.34s13.774 6.5247-5.7997 122.52c0 0 10.874 76.846 1.4499 118.89l-1.4499 42.048h-15.224l-2.8999-4.3498s-0.725-37.698-5.7997-47.848-9.4246-68.872-9.4246-68.872-23.199-119.62-18.124-129.77 57.272-32.623 57.272-32.623z" style="fill:#fbbebe"/><path d="m350.87 683.61s5.0748 11.599 14.499 8.6996 11.599-2.8999 11.599-2.8999-6.5247 33.348-4.3498 49.298-1.4499 26.099-15.949 26.099-16.674-17.399-16.674-17.399l6.5247-41.323z" style="fill:#2f2e41"/><path d="m517.62 665.48s5.0748 10.15 13.049 7.9746 10.874-5.7997 10.874-5.7997-0.725 22.474 2.1749 32.623 9.4246 39.148-5.7997 40.598a19.573 19.573 0 0 1-20.299-11.599v-63.797z" style="fill:#2f2e41"/><circle cx="481.37" cy="138.43" r="31.898" style="fill:#fbbebe"/><path d="m540.09 195.7s-25.267-9.9214-34.383-8.5856a37.259 37.259 0 0 1-28.689 8.5856c-17.399-2.1749-24.203-10.525-24.203-10.525s-46.844 10.525-43.944 14.875 15.949 75.396 15.949 75.396 8.6996 61.622-1.4499 82.646-15.224 55.822-10.874 58.722 52.922 15.949 58.722 19.574 7.9746-8.6996 11.599-6.5247 11.599 5.7997 16.674 2.8999 54.372-28.999 52.922-34.073-20.299-66.697-26.824-79.021-1.4499-38.423 2.1749-43.498 10.874-10.874 12.324-25.374 0-55.097 0-55.097z" style="fill:#2f2e41"/><path d="m410.47 197.81s-5.9476 4.4154-8.1225 13.84-5.0748 84.821-5.0748 84.821-26.824 103.67-21.024 105.84 22.474 6.5247 24.649 4.3498 26.824-89.896 24.649-99.32 2.8999-36.973 2.8999-36.973z" style="fill:#2f2e41"/><path d="m544.44 332.72s-39.148-19.574-43.498-6.5247 41.323 26.824 41.323 26.824 15.949-5.7997 15.949-9.4246-13.774-10.874-13.774-10.874z" style="fill:#fbbebe"/><path d="m532.12 198.6 7.9746-2.8999s4.3498-2.8999 9.4246 7.9746 60.172 74.671 50.023 94.97-43.498 61.622-44.948 58.722-18.124-24.649-15.224-26.824 36.248-31.898 31.898-36.248-22.474-41.323-32.623-42.773-6.5247-52.922-6.5247-52.922z" style="fill:#2f2e41"/><path d="m446.21 137.34s-110.55-44.45-206.24-87.223c0 0-50.023-12.324-76.121 10.874 0 0 21.749-2.8999 21.749 9.4246 0 0 18.849 24.649-39.873 28.999-40.896 3.0293-57.178 27.507-63.296 42.09a59.245 59.245 0 0 1-23.958 28.17c-14.135 8.4477-34.62 14.663-58.465 3.6866 0 0 1.3556 2.084 3.927 5.5564 46.038 62.172 217.48 116.28 278.02 68.118 37.415-29.765 96.728-67.385 139.25-48.436 66.697 29.724 79.021 16.674 79.021 16.674l2.8999-7.9746s-64.522-17.399-65.972-39.873 9.0621-30.086 9.0621-30.086z" style="fill:#4e73df"/><path d="m510.73 143.14s15.587 6.1622 18.487 26.461c0 0 16.674 32.623-2.1749 40.598s-22.474 5.7997-22.474 5.7997v-3.6248s20.299-12.324 15.949-21.749-9.787-47.485-9.787-47.485z" style="fill:#4e73df"/><path d="m482.82 235.58s5.0748-13.049 3.6248-13.049 5.8984-8.026 8.7489-5.1004 7.9253 11.625 2.1256 13.8-14.499 4.3498-14.499 4.3498z" style="fill:#4e73df"/><path d="m518.55 227.83s-13.252-4.5186-13.191-3.07c0.0613 1.4486-8.2682-5.5538-5.4657-8.5255s11.28-8.4096 13.698-2.707 4.9588 14.302 4.9588 14.302z" style="fill:#4e73df"/><path d="m497.32 208.03s6.619-3.7151 10.559 2.1297-4.7594 15.994-10.559 15.994-5.7997-12.324-5.7997-12.324z" style="fill:#4e73df"/><path d="m497.32 208.03s6.619-3.7151 10.559 2.1297-4.7594 15.994-10.559 15.994-5.7997-12.324-5.7997-12.324z" style="opacity:.1"/><path d="m453.71 86.377c-3.8224 3.1509-7.4472 6.682-9.8241 11.028a49.479 49.479 0 0 0-3.1153 7.5843c-2.9316 8.4372-10.219 16.982-7.1348 25.365 0.88011 2.3919 2.2524 4.9139 1.4634 7.3374-0.70069 2.1523-2.8634 3.4083-4.4276 5.0443-3.3574 3.5114-3.9218 8.7801-4.1269 13.634-0.3756 8.8891 4.5121 19.364 10.418 26.019a36.356 36.356 0 0 1 3.5542 4.0236 9.4318 9.4318 0 0 1 1.1133 7.7588l8.6034-1.7956a71.363 71.363 0 0 1 0.29032 9.5591 8.9238 8.9238 0 0 0 9.4628-6.1156 25.551 25.551 0 0 0 2.3635 6.5306 33.709 33.709 0 0 0 5.7142-10.583 30.256 30.256 0 0 0 1.0262-15.278 64.784 64.784 0 0 0-3.7043-10.859c-3.04-7.6828-5.5225-15.572-8.0022-23.454-1.2879-4.0934-2.5913-8.3199-2.201-12.593l3.057-0.3325a14.596 14.596 0 0 1 0.96489-4.9337 18.101 18.101 0 0 1 5.1125 1.9242l3.5241-8.9422c2.3259 2.4122 5.6638 3.504 8.86 4.5104l12.148 3.8252 0.074-2.4042a62.353 62.353 0 0 0 17.287 10.844 3.9327 3.9327 0 0 1-0.85375-3.1293c2.9938 5.3631 1.7965 12.044-0.0511 17.902-1.8476 5.8576-4.2988 11.821-3.5548 17.918 0.55648 4.5599 2.8924 8.9209 2.4593 13.494-0.21326 2.2521-1.0941 4.3952-1.368 6.6407-0.65327 5.3555 2.1626 10.455 4.8807 15.116l5.2854-7.2585c1.9344-2.6565 3.9282-5.3709 6.6671-7.1867 2.8116-1.864 6.2965-2.7007 8.7466-5.0194 4.3738-4.1391 3.8185-11.191 2.3962-17.042-0.75612-3.1106-1.6711-6.2652-1.3931-9.4543 0.47124-5.4062 4.2279-9.8792 6.3436-14.876a25.826 25.826 0 0 0-1.4473-22.703c-2.6253-4.5031-6.5923-8.1298-9.0663-12.718-2.4628-4.5672-3.4022-10.001-6.7768-13.943a23.522 23.522 0 0 0-5.6807-4.526 74.057 74.057 0 0 0-31.506-10.279c-10.568-1.1049-19.484 2.6931-27.582 9.3689z" style="fill:#e74a3b"/><ellipse transform="rotate(-69.082)" cx="-414.44" cy="326.67" rx="21.534" ry="6.7601" style="fill:#2f2e41"/><circle cx="132.09" cy="660.03" r="43.067" style="fill:#2f2e41"/><rect x="112.46" y="693.83" width="13.084" height="23.442" style="fill:#2f2e41"/><rect x="138.63" y="693.83" width="13.084" height="23.442" style="fill:#2f2e41"/><ellipse cx="123.36" cy="717.54" rx="10.903" ry="4.0887" style="fill:#2f2e41"/><ellipse cx="149.53" cy="717" rx="10.903" ry="4.0887" style="fill:#2f2e41"/><circle cx="133.18" cy="649.13" r="14.719" style="fill:#fff"/><path d="m90.309 619.98c-3.4775-15.574 7.6386-31.31 24.829-35.149s33.944 5.6751 37.422 21.249-7.9149 21.318-25.105 25.156-33.668 4.3178-37.145-11.256z" style="fill:#cfcce0"/><circle cx="117.37" cy="536.28" r="43.067" style="fill:#2f2e41"/><rect x="97.741" y="570.08" width="13.084" height="23.442" style="fill:#2f2e41"/><rect x="123.91" y="570.08" width="13.084" height="23.442" style="fill:#2f2e41"/><ellipse cx="108.64" cy="593.79" rx="10.903" ry="4.0887" style="fill:#2f2e41"/><ellipse cx="134.81" cy="593.25" rx="10.903" ry="4.0887" style="fill:#2f2e41"/><circle cx="118.46" cy="525.38" r="14.719" style="fill:#fff"/><circle cx="123.23" cy="520.61" r="4.9064" style="fill:#3f3d56"/><path d="m75.589 496.23c-3.4775-15.574 7.6386-31.31 24.829-35.149s33.944 5.6751 37.422 21.249-7.9149 21.318-25.105 25.156-33.668 4.3177-37.145-11.256z" style="fill:#cfcce0"/><ellipse transform="rotate(-64.626)" cx="-436.98" cy="283.46" rx="6.7601" ry="21.534" style="fill:#2f2e41"/><path d="m96.212 551.82c0 4.2151 10.853 12.539 22.897 12.539s23.335-11.867 23.335-16.082-11.292 0.81774-23.335 0.81774-22.897-1.4894-22.897 2.7258z" style="fill:#fff"/><path d="m129.21 649.19a3.9908 3.9908 0 0 1 1.9353-3.6044 3.9908 3.9908 0 0 1 4.0911-7e-3 3.9908 3.9908 0 0 1 1.9476 3.5978" style="fill:none;stroke-width:1.6268;stroke:#2f2e41"/><g transform="matrix(-.68797 0 0 .68797 878.14 236.04)"><ellipse cx="104.35" cy="737.53" rx="44.379" ry="12.84" style="fill:#dddfeb;stroke-width:.24921"/><circle transform="rotate(-17.499)" cx="-104.74" cy="683.35" r="55.712" style="fill:#4e73df;stroke-width:.77378"/><path d="m58.076 613.42c9.9169 15.485 28.908 21.024 28.908 21.024s2.9131-19.567-7.0037-35.052-28.908-21.024-28.908-21.024-2.9131 19.567 7.0037 35.052z" style="fill:#3f3d56;stroke-width:.77378"/><path d="m63.658 607.66c16.423 8.2709 23.887 26.592 23.887 26.592s-19.164 4.911-35.587-3.3599c-16.423-8.2709-23.887-26.592-23.887-26.592s19.164-4.911 35.587 3.3599z" style="fill:#4e73df;stroke-width:.77378"/><path d="m83.26 598.88c-3.5934 18.034 6.2487 35.194 6.2487 35.194s15.668-12.078 19.261-30.111c3.5933-18.034-6.2487-35.194-6.2487-35.194s-15.668 12.078-19.261 30.111z" style="fill:#3f3d56;stroke-width:.77378"/><path d="m91.276 598.6c6.097 17.348-1.2304 35.724-1.2304 35.724s-17.213-9.751-23.31-27.099c-6.097-17.348 1.2304-35.724 1.2304-35.724s17.213 9.751 23.31 27.099z" style="fill:#4e73df;stroke-width:.77378"/><circle transform="rotate(-17.499)" cx="-107.06" cy="677.16" r="28.63" style="fill:#f2f2f2;stroke-width:.77378"/><circle transform="rotate(-17.499)" cx="-97.22" cy="665.97" r="9.2853" style="fill:#3f3d56;stroke-width:.77378"/></g><path d="m505.39 666.85-12.54 1.07s6.65 11.51 12.54-1.07z" style="fill:#4e73df"/><path d="m483.43 659.89 10 8s-12.94 5.12-10-8z" style="fill:#4e73df"/><path d="m507 655.87-11.33 1.52s9.99 8.12 11.33-1.52z" style="fill:#4e73df"/><path d="m488.25 651.85 7.48 5.25s-9.08 3.86-7.48-5.25z" style="fill:#4e73df"/><path d="m498.51 647.07s9.29-2.46 10.63-1.92 0.54 6.42-3.21 6.69-7.42-4.77-7.42-4.77z" style="fill:#4e73df"/><path d="m492.27 640.07s5.89 5.62 6.16 7-4.82 4.55-7.5 0 1.34-7 1.34-7z" style="fill:#4e73df"/><circle cx="503.25" cy="640.6" r="2.68" style="fill:#ffd037"/><circle cx="498.43" cy="639.26" r="2.68" style="fill:#ffd037"/><path d="m467.23 686.75s-6.21-21.08 1.16-36.6a33.27 33.27 0 0 0 2.7-20.89 56.7 56.7 0 0 0-3-9.81" stroke-miterlimit="10" style="fill:none;stroke-miterlimit:10;stroke-width:2;stroke:#535461"/><path d="m472.72 609.64c0 2.59-4.68 10.08-4.68 10.08s-4.68-7.49-4.68-10.08a4.68 4.68 0 1 1 9.36 0z" style="fill:#4e73df"/><path d="m480.45 623.96c-1.4 2.17-9.4 5.91-9.4 5.91s0.14-8.83 1.55-11a4.68 4.68 0 1 1 7.85 5.09z" style="fill:#4e73df"/><path d="m480.11 648.42c-2.3 1.16-11.1 0.36-11.1 0.36s4.58-7.56 6.89-8.72a4.6801 4.6801 0 0 1 4.21 8.36z" style="fill:#4e73df"/><path d="m475.69 666.86c-2.08 1.54-10.84 2.21-10.84 2.21s3.24-8.22 5.32-9.76a4.68 4.68 0 1 1 5.56 7.52z" style="fill:#4e73df"/><path d="m461.22 630.37c1.86 1.8 10.49 3.67 10.49 3.67s-2.11-8.58-4-10.38a4.68 4.68 0 0 0-6.52 6.71z" style="fill:#4e73df"/><path d="m456.32 652.01c2.31 1.17 11.11 0.36 11.11 0.36s-4.59-7.55-6.89-8.71a4.68 4.68 0 1 0-4.22 8.35z" style="fill:#4e73df"/><path d="m454.45 673.7c2.08 1.54 10.88 2.23 10.88 2.23s-3.24-8.21-5.32-9.75a4.68 4.68 0 1 0-5.56 7.52z" style="fill:#4e73df"/><path d="m453.72 684.7s11.35-2.27 14.37-5.29 16.65-8.33 18.16-4.54 20.42 16.64 7.56 18.91-30.26 3-34 1.51-6.09-10.59-6.09-10.59z" style="fill:#a8a8a8"/><path d="m493.85 692.37c-12.86 2.27-30.26 3-34 1.52-2.88-1.16-4.88-6.69-5.67-9.27l-0.38 0.08s2.27 9.08 6 10.59 21.18 0.76 34-1.51c3.72-0.66 4.78-2.19 4.38-4.14-0.33 1.27-1.6 2.25-4.33 2.73z" style="opacity:.2"/><ellipse cx="62.146" cy="729.99" rx="26.93" ry="4.55" style="fill:#4e73df"/><path d="m78.766 719.11a11.73 11.73 0 0 0 3.84-5.79c0.49-2.29-0.49-5-2.68-5.89-2.46-0.94-5.09 0.77-7.08 2.49s-4.28 3.69-6.89 3.32a10.47 10.47 0 0 0 3.24-9.81 4.12 4.12 0 0 0-0.9-2c-1.37-1.46-3.84-0.84-5.48 0.31-5.2 3.66-6.65 10.73-6.67 17.08-0.53-2.29-0.09-4.68-0.1-7s-0.66-5-2.64-6.23a8 8 0 0 0-4-0.94c-2.34-0.09-4.94 0.15-6.54 1.86-2 2.12-1.47 5.68 0.26 8s4.35 3.81 6.76 5.42a15 15 0 0 1 4.84 4.61 4.83 4.83 0 0 1 0.36 0.83h14.62a40.77 40.77 0 0 0 9.06-6.26z" style="fill:#4e73df"/><ellipse cx="95.251" cy="751.94" rx="26.93" ry="4.55" style="fill:#dddfeb"/><g transform="matrix(.79571 0 0 .79571 160.34 138.68)"><ellipse cx="721.23" cy="699.74" rx="26.93" ry="4.55" style="fill:#4e73df"/><path d="m737.85 688.86a11.73 11.73 0 0 0 3.84-5.79c0.49-2.29-0.49-5-2.68-5.89-2.46-0.94-5.09 0.77-7.08 2.49s-4.28 3.69-6.89 3.32a10.47 10.47 0 0 0 3.24-9.81 4.12 4.12 0 0 0-0.9-2c-1.37-1.46-3.84-0.84-5.48 0.31-5.2 3.66-6.65 10.73-6.67 17.08-0.53-2.29-0.09-4.68-0.1-7s-0.66-5-2.64-6.23a8 8 0 0 0-4-0.94c-2.34-0.09-4.94 0.15-6.54 1.86-2 2.12-1.47 5.68 0.26 8s4.35 3.81 6.76 5.42a15 15 0 0 1 4.84 4.61 4.83 4.83 0 0 1 0.36 0.83h14.62a40.77 40.77 0 0 0 9.06-6.26z" style="fill:#4e73df"/></g><g transform="rotate(11.867 -307.7 2101)"><circle cx="354.26" cy="504.18" r="42.012" style="fill:#2f2e41"/><rect transform="rotate(169.74 458.77 617.96)" x="522.19" y="692.7" width="12.763" height="22.867" style="fill:#2f2e41"/><rect transform="rotate(169.74 433.65 622.51)" x="497.07" y="697.25" width="12.763" height="22.867" style="fill:#2f2e41"/><ellipse transform="rotate(-40.261 210.12 853.35)" cx="503.3" cy="722.76" rx="10.636" ry="3.9885" style="fill:#2f2e41"/><ellipse transform="rotate(-40.261 234.72 848.9)" cx="527.9" cy="718.31" rx="10.636" ry="3.9885" style="fill:#2f2e41"/><circle cx="351.32" cy="493.9" r="14.359" style="fill:#fff"/><circle cx="345.42" cy="488.75" r="4.7862" style="fill:#3f3d56"/><path transform="translate(-153.85 -158.54)" d="m541.25 617.01c0.63179-15.554-12.773-28.728-29.941-29.425s-31.597 11.346-32.229 26.9 11.302 19.087 28.47 19.785 33.068-1.7059 33.7-17.26z" style="fill:#cfcce0"/><ellipse transform="rotate(-77.09 292.89 672.34)" cx="469.31" cy="655.06" rx="6.5945" ry="21.006" style="fill:#2f2e41"/><ellipse transform="rotate(-77.09 375.36 686.06)" cx="551.78" cy="668.77" rx="6.5945" ry="21.006" style="fill:#2f2e41"/><path transform="translate(-153.85 -158.54)" d="m519.64 679.27a9.5724 9.5724 0 1 1-18.839 3.4103c-0.94174-5.2022 3.0804-7.043 8.2826-7.9847s9.6144-0.62777 10.556 4.5744z" style="fill:#fff"/></g><g transform="matrix(.56199 0 0 .56199 -189.63 355.95)"><path transform="translate(-55.48,-53.98)" d="m720.9 693.48s34.43-6.89 43.62-16.07 50.5-25.26 55.09-13.78 62 50.51 23 57.39-91.83 9.19-103.31 4.59-18.4-32.13-18.4-32.13z" style="fill:#a8a8a8"/><path transform="translate(-55.48,-53.98)" d="m842.57 716.76c-39 6.89-91.83 9.18-103.31 4.59-8.74-3.5-14.81-20.3-17.21-28.11l-1.15 0.24s6.89 27.54 18.36 32.13 64.28 2.3 103.31-4.59c11.26-2 14.48-6.65 13.27-12.56-0.96 3.85-4.84 6.82-13.27 8.3z" style="opacity:.2"/></g></svg>
