<svg width="878" height="737.16" data-name="Layer 1" version="1.1" viewBox="0 0 878 737.16" xmlns="http://www.w3.org/2000/svg" xmlns:xlink="http://www.w3.org/1999/xlink"><defs><linearGradient id="11de5531-9568-4bfb-9c18-e1a10a1db304" x1="547.62" x2="547.62" y1="818.58" y2="81.42" gradientUnits="userSpaceOnUse"><stop stop-color="gray" stop-opacity=".25" offset="0"/><stop stop-color="gray" stop-opacity=".12" offset=".54"/><stop stop-color="gray" stop-opacity=".1" offset="1"/></linearGradient><linearGradient id="c10cd1d3-5fc0-4efe-baa0-ba95b5480666" x1="808.92" x2="808.92" y1="716.17" y2="344.73" xlink:href="#11de5531-9568-4bfb-9c18-e1a10a1db304"/></defs><title>appreciation_2</title><path transform="translate(-161 -81.42)" d="m622.12 512.34c-32-65.11-6.4-121.68 38.43-161.18 61.91-28.82 122.75-16 167.58 41.63 29.25-17.1 66.5-20.8 97.13-13.88 23.64-89 1.5-195.76-77.39-253.3-102.62-74.85-246.49-52.33-321.34 50.29-102.62-74.85-246.53-52.33-321.34 50.29s-52.33 246.49 50.29 321.34l371.63 271.05 98.55-136.53z" fill="url(#11de5531-9568-4bfb-9c18-e1a10a1db304)"/><path transform="translate(-161 -81.42)" d="M616.72,511.71a122.83,122.83,0,1,1,212.1-124,122.39,122.39,0,0,1,89-13.76c22.6-85.11-7.55-179.13-83-234.14-98.11-71.56-235.66-50-307.22,48.08C429.52,116.38,292,137.91,220.41,236s-50,235.66,48.08,307.22L623.8,802.39l90.37-123.91Z" fill="#4e73df"/><path transform="translate(-161 -81.42)" d="m829.54 401.7a114.94 114.94 0 0 0-198.48 116l116 198.48 198.48-116a114.94 114.94 0 1 0-116-198.48z" fill="url(#c10cd1d3-5fc0-4efe-baa0-ba95b5480666)"/><path transform="translate(-161 -81.42)" d="M828.58,405.35A109.6,109.6,0,1,0,639.32,516l110.6,189.26,189.26-110.6a109.6,109.6,0,1,0-110.6-189.26Z" fill="#e53935"/><path transform="translate(-161 -81.42)" d="M528,188l-.08-.43-.28.38C429.52,116.38,292,137.91,220.41,236c-62.5,85.69-54,201.47,14.54,277.09Z" opacity=".2"/><path transform="translate(-161 -81.42)" d="M937.18,595.61A109.6,109.6,0,0,0,827,406.08L936,596.29Z" opacity=".2"/></svg>
