<svg id="aaa444b1-ec30-4a51-a2af-6b879f86a07d" width="230mm" height="205mm" data-name="Layer 1" version="1.1" viewBox="0 0 869.29 774.8" xmlns="http://www.w3.org/2000/svg"><title>energizer</title><circle transform="matrix(-.98017 -.19818 -.19818 .98017 0 0)" cx="-798.85" cy="518.01" r="42.012" style="fill:#2f2e41"/><rect transform="matrix(.94674 -.322 -.322 -.94674 0 0)" x="408.44" y="-904.95" width="12.763" height="22.867" style="fill:#2f2e41"/><ellipse transform="matrix(-.9809 -.19451 -.19451 .9809 0 0)" cx="-815.22" cy="577.04" rx="10.636" ry="3.9885" style="fill:#2f2e41"/><circle transform="matrix(-.98017 -.19818 -.19818 .98017 0 0)" cx="-801.79" cy="507.73" r="14.359" style="fill:#fff"/><circle transform="matrix(-.98017 -.19818 -.19818 .98017 0 0)" cx="-796.94" cy="502.78" r="4.7862" style="fill:#3f3d56"/><path d="m656.93 614.68c2.4631-15.37 18.213-25.626 35.178-22.908 16.965 2.7187 28.722 17.383 26.259 32.753s-14.86 16.469-31.826 13.75c-16.965-2.7187-32.074-8.2254-29.611-23.596z" style="fill:#cfcce0"/><ellipse transform="matrix(.37931 -.92527 -.92527 -.37931 0 0)" cx="-357.47" cy="-927.69" rx="6.5945" ry="21.006" style="fill:#2f2e41"/><ellipse cx="433.05" cy="737.12" rx="243.5" ry="37.679" style="fill:#dddfeb"/><path d="m426.61 165.64s5.9438 27.342-14.265 38.04c0 0 4.7551 60.627 35.663 61.816s30.908-32.097 30.908-32.097l-4.7551-17.831s-22.587-13.076-8.3214-38.04z" style="fill:#fbbebe"/><circle cx="452.17" cy="124.63" r="55.872" style="fill:#2f2e41"/><polygon transform="translate(32 6.0096)" points="361.32 353.4 459.99 349.83 452.86 284.45 361.32 286.83" style="fill:#fbbebe"/><circle cx="452.76" cy="149" r="35.663" style="fill:#fbbebe"/><path d="m408.78 203.68s-20.209-3.5663-27.342 0-15.454 2.3775-23.775 36.852l-15.454 71.326s-2.3775 21.398 15.454 19.02 16.643-33.285 16.643-33.285l11.888-27.342 21.398-23.775z" style="fill:#fbbebe"/><path d="m476.54 217.95s28.53 3.5663 30.908 19.02-10.699 78.459-10.699 78.459l-20.209-20.209 10.699-39.229z" style="fill:#fbbebe"/><path d="m403.43 203.09 0.59438 21.992-16.643 35.663 3.5663 43.984 95.389 0.28742-0.28742-20.496s13.076-16.643 5.9438-30.908-12.482-36.257-12.482-36.257l-9.5101-5.9438s16.048 37.446-17.237 31.502-35.069-43.39-35.069-43.39z" style="fill:#1cc88a"/><path d="m375.49 442.62-16.643 93.912-19.02 136.71-8.3214 15.454 7.1326 15.454 20.209-9.5101 8.3214-36.852s28.53-34.474 23.775-78.459l51.117-122.44z" style="fill:#fbbebe"/><path d="m457.52 452.13 11.888 116.5s-2.3775 32.097 4.7551 60.627 11.888 78.459 11.888 78.459h23.775l-4.7551-146.22 15.454-118.88z" style="fill:#fbbebe"/><path d="m440.87 345.14s-49.928-3.5663-49.928 2.3775v11.888s-9.5101 15.454-8.3214 29.719-45.173 46.362-15.454 60.627 68.948 19.02 74.892 14.265 9.5101-23.775 9.5101-23.775 0 21.398 10.699 22.587 74.892-11.888 74.892-22.587-47.572-106.39-47.572-106.39-34.453 12.482-48.718 11.294z" style="fill:#2f2e41"/><path d="m337.45 689.89s-4.7551-8.3214-9.5101-2.3775-22.587 20.209-22.587 20.209-43.984 11.888-14.265 29.719c0 0 26.153 0 36.852-8.3214s21.398-4.7551 21.398-4.7551 16.643-1.1888 17.831-8.3214-6.2274-30.671-6.2274-30.671-8.0378 10.462-23.492 4.518z" style="fill:#2f2e41"/><path d="m495.56 697.02s-14.265-3.5663-14.265 0-20.209 24.964-3.5663 34.474 19.02 7.1326 20.209 16.643 32.097 16.643 36.852 10.699 8.3214-16.643 2.3775-21.398-24.964-34.474-24.964-40.418-16.643-3e-5 -16.643-3e-5z" style="fill:#2f2e41"/><ellipse cx="466.74" cy="233.49" rx="4.1733" ry="2.0867" style="fill:#3f3d56"/><ellipse cx="467.22" cy="237.94" rx="8.5364" ry="4.363" style="fill:#4e73df"/><rect x="456.78" y="240.6" width="20.487" height="14.986" style="fill:#4e73df"/><rect x="442.65" y="264.03" width="48.562" height="73.413" style="fill:#4e73df"/><path d="m493.39 263.17c0 7.2289-11.91 4.7424-26.368 4.7424s-26.747 2.2968-26.747-4.9321 12.289-14.796 26.747-14.796 26.368 7.7571 26.368 14.986z" style="fill:#4e73df"/><rect x="440.85" y="270.95" width="52.546" height="5.6909" style="fill:#3f3d56"/><rect x="441.23" y="325.96" width="52.546" height="5.6909" style="fill:#3f3d56"/><rect x="440.85" y="301.3" width="52.546" height="11.382" style="fill:#3f3d56"/><path d="m493.01 334.88c0 2.4096 0.765 9.2951-25.419 9.2951-29.593 0-27.127-7.2649-27.127-9.6745s13.088 0.94848 27.127 0.94848 25.419-2.9787 25.419-0.56909z" style="fill:#4e73df"/><rect x="454.7" y="237.94" width="24.281" height="8.157" style="fill:#3f3d56"/><rect x="444.93" y="281.48" width="3.2248" height="17.831" style="fill:#fff;opacity:.1"/><rect x="444.93" y="315.44" width="3.2248" height="6.6394" style="fill:#fff;opacity:.1"/><path d="m501.5 301.16s-22.587-29.719-21.398-8.3214 14.265 32.097 16.643 32.097 11.888-2.3775 4.7551-23.775z" style="fill:#fbbebe"/><path d="m393.32 324.05c1.7832 0.2877 30.314-10.411 30.314-10.411l17.831-2.3775-48.145 20.134z" style="opacity:.1"/><path d="m356.47 303.54s9.5101-5.9438 28.53-3.5663l36.852-9.5101s34.474-20.209 47.551 4.7551-48.739 16.643-48.739 16.643-41.607 33.285-66.571 15.454z" style="fill:#fbbebe"/><circle cx="401.05" cy="84.211" r="16.643" style="fill:#2f2e41"/><circle cx="503.28" cy="79.456" r="16.643" style="fill:#2f2e41"/><path d="m485.45 72.323a16.642 16.642 0 0 1 14.86-16.544 16.643 16.643 0 1 0 0 33.089 16.642 16.642 0 0 1-14.86-16.544z" style="fill:#2f2e41"/><path d="m382.45 97.673a16.642 16.642 0 0 1-0.96479-22.217 16.81 16.81 0 0 0-1.3425 1.1777 16.643 16.643 0 0 0 23.295 23.775 16.812 16.812 0 0 0 1.2048-1.3182 16.642 16.642 0 0 1-22.193-1.4177z" style="fill:#2f2e41"/><path d="m452.17 98.476c-19.696 0-35.663 9.314-35.663 20.803 0 5.1408 3.2095 9.8392 8.5072 13.469l6.8655-4.9745-1.867 7.7932c0.77468 0.359 1.5657 0.70648 2.3907 1.0276l10.256-11.966v14.7a59.869 59.869 0 0 0 9.5101 0.75394c19.696 0 35.663-9.314 35.663-20.803s-15.967-20.803-35.663-20.803z" style="fill:#2f2e41"/><path d="m486.64 79.456s-2.5848 11.888 13.567 16.643" style="fill:#4e73df"/><path d="m416.5 81.619s5.9438 13.29-11.888 19.234" style="fill:#4e73df"/><path d="m658.82 665.34a28.843 28.843 0 0 0-11.205-46.239 20.471 20.471 0 1 0-20.503 0 28.843 28.843 0 0 0-11.205 46.239 40.012 40.012 0 1 0 42.914 0z" style="fill:#1cc88a"/><circle cx="289.57" cy="400.89" r="29.789" style="fill:#4e73df"/><ellipse transform="rotate(-38.991)" cx="-47.484" cy="493.79" rx="6.7702" ry="14.895" style="fill:#fff"/><circle cx="94.722" cy="312.99" r="29.789" style="fill:#e74a3b"/><ellipse transform="rotate(-74.91)" cx="-277.53" cy="152.63" rx="14.895" ry="6.7702" style="fill:#fff"/><circle cx="50.569" cy="137.93" r="18.564" style="fill:#3f3d56"/><ellipse transform="rotate(-74.91)" cx="-120.01" cy="72.077" rx="9.2822" ry="4.2192" style="fill:#fff"/><circle cx="242.92" cy="597.19" r="18.564" style="fill:#f6c23e"/><ellipse transform="rotate(-74.91)" cx="-513.36" cy="377.36" rx="9.2822" ry="4.2192" style="fill:#fff"/><circle cx="819.65" cy="379.34" r="29.789" style="fill:#3f3d56"/><ellipse cx="799.34" cy="379.34" rx="6.7702" ry="14.895" style="fill:#fff"/><circle cx="723.51" cy="188.42" r="29.789" style="fill:#4e73df"/><ellipse transform="rotate(-35.919)" cx="475.41" cy="556.72" rx="14.895" ry="6.7702" style="fill:#fff"/><circle cx="799.34" cy="24.575" r="18.564" style="fill:#f6c23e"/><ellipse transform="rotate(-35.919)" cx="632.93" cy="476.17" rx="9.2822" ry="4.2192" style="fill:#fff"/><circle cx="659.87" cy="502.55" r="18.564" style="fill:#e74a3b"/><ellipse transform="rotate(-35.919)" cx="239.58" cy="781.44" rx="9.2822" ry="4.2192" style="fill:#fff"/><path d="m660.82 661.34a28.843 28.843 0 0 0-11.205-46.239 20.471 20.471 0 1 0-20.503 0 28.843 28.843 0 0 0-11.205 46.239 40.012 40.012 0 1 0 42.914 0z" style="fill:none;stroke:#3f3d56"/><ellipse cx="85.227" cy="740.75" rx="33.253" ry="9.6209" style="fill:#dddfeb;stroke-width:.18673"/><circle transform="rotate(-17.499)" cx="-128.33" cy="693.56" r="41.745" style="fill:#4e73df;stroke-width:.57979"/><path d="m50.554 647.76c7.4307 11.603 21.661 15.753 21.661 15.753s2.1828-14.662-5.2479-26.264c-7.4307-11.603-21.661-15.753-21.661-15.753s-2.1828 14.662 5.2479 26.264z" style="fill:#3f3d56;stroke-width:.57979"/><path d="m54.737 643.44c12.306 6.1974 17.898 19.925 17.898 19.925s-14.359 3.6798-26.665-2.5176c-12.306-6.1974-17.898-19.925-17.898-19.925s14.359-3.6798 26.665 2.5176z" style="fill:#4e73df;stroke-width:.57979"/><path d="m69.424 636.86c-2.6925 13.513 4.6822 26.371 4.6822 26.371s11.74-9.0498 14.432-22.562c2.6925-13.513-4.6822-26.371-4.6822-26.371s-11.74 9.0498-14.432 22.562z" style="fill:#3f3d56;stroke-width:.57979"/><path d="m75.43 636.65c4.5685 12.999-0.92194 26.768-0.92194 26.768s-12.897-7.3064-17.466-20.305c-4.5685-12.999 0.92195-26.768 0.92195-26.768s12.897 7.3064 17.466 20.305z" style="fill:#4e73df;stroke-width:.57979"/><circle transform="rotate(-17.499)" cx="-130.07" cy="688.92" r="21.452" style="fill:#f2f2f2;stroke-width:.57979"/><circle transform="rotate(-17.499)" cx="-122.7" cy="680.54" r="6.9575" style="fill:#3f3d56;stroke-width:.57979"/></svg>
